<svg width="113" height="101" viewBox="0 0 113 101" fill="none" xmlns="http://www.w3.org/2000/svg">
<path fill-rule="evenodd" clip-rule="evenodd" d="M84.9 7.4C85.4 9 85.9 11 86.4 12.6C84.1 13.6 81.6 15.3 79.4 16.4C79.4 14.9 79.3 13.4 79.3 11.8C79.3 11.6 79.2 11.3 79.3 11.2C79.3 11.1 80.4 10.1 80.5 10C81.1 9.6 81.4 9.1 82 8.7C83.1 8.2 84 7.8 84.9 7.4ZM53.1 29.6C52.7 29.8 52.2 30.2 52.1 30.7C52.1 31.1 52.4 31.4 52.7 31.6C53.4 32.1 54.5 32.4 55.6 32.6C58.5 33.1 62.1 32.9 64.1 31.8C64.5 31.6 65 31.2 65 30.7C65 30.1 64.5 29.8 63.9 29.5C63.3 29.2 62.8 29.1 62.2 28.9C61 28.6 59.5 28.4 58.1 28.5C56.2 28.7 54.5 28.8 53.1 29.6ZM78.4 65.6C79.3 65.3 80.2 65.8 80.5 66.3C81.2 67.3 80.7 68.4 80 68.9C78.9 69.6 77.4 69 77.1 67.8C76.4 68.9 75.7 69.9 74.8 70.7C74.7 70.8 74.5 70.9 74.4 71.1C75.8 73.7 78.2 75.5 81.1 76.6C84 77.7 87.9 78.1 91.9 77.8C93.8 77.6 95.5 77.3 97.2 76.9C100.5 76.1 103.6 75.1 106.6 74.1C107.4 73.8 108.1 73.6 108.9 73.3C109.7 73.1 110.6 72.8 111.5 72.9C110.9 72.1 110.2 71.3 109.5 70.5C109.3 70.2 109.1 69.9 108.8 69.7C108.5 69.4 107.9 69.1 107.4 68.8C106.9 68.5 106.3 68.3 105.8 68.1C102.5 66.8 98.8 66 95.1 65.3C90 64.3 84.7 63.6 79.5 62.9C79.2 63.8 78.8 64.7 78.4 65.6ZM73.9 94.3C74.5 92.1 75 89.6 75 86.8C75 84 74.8 81.4 74.2 79C73.7 76.7 72.9 74.2 72 72.3C69.7 73.1 67.6 74.3 64.4 74.3C61.6 74.3 58.8 73.2 56.6 72.5C56.1 79.6 58.3 85.4 60.7 89.9C63.2 94.5 66.9 97.9 71.4 100.4C72.4 98.6 73.2 96.6 73.9 94.3ZM75.1 0C73.7 0.5 72.3 1.1 71.1 1.9C66.1 4.7 61.9 8.5 58.8 13.1C57.2 15.4 55.5 17.7 54.2 20.3C53.5 21.6 52.8 23 52.5 24.5C51 21.8 49.2 19.3 47.1 17.2C46.1 16.1 45 15.1 43.9 14.1C42.8 13.1 41.6 12 39.7 12C38.5 9.9 36.9 8 34.3 7.3C33.2 7 32.4 7.1 31.6 7.6C30.2 8.4 29.2 9.7 28.4 11.1C27.7 12.1 27.2 13.3 26.6 14.4C26.4 14.8 26.3 15.2 26 15.5C24.9 13.2 23.7 10.9 22 9C21.2 8.1 20.2 7.4 19 6.7C18.2 6.3 17.2 5.8 16 5.7C15.5 5.7 14.7 5.6 14.4 5.9C14 6.3 13.9 7.2 13.9 8.1C13.9 10.8 14.4 13.2 14.7 15.5C14.8 15.5 14.7 15.2 14.7 15.1C15.2 18.3 16.1 21 17.1 23.6C17.3 23.5 17.6 23.4 17.9 23.4C18.9 23.3 19.6 23.8 19.9 24.5C20.4 25.6 19.7 26.9 18.7 27.1C22 34 31.5 45.3 30.5 45.8C29.5 46.3 21.9 38 18.6 33.1C17.7 31.7 16.8 30.2 15.9 28.6C15.8 28.4 15.6 28.1 15.5 28C15.3 27.9 15 27.8 14.7 27.8C12.9 27.3 10.9 27 9.2 26.4C8.7 28 8.5 30.1 8.8 32C9.1 33.8 9.8 35.3 10.7 36.3C9.2 35.7 7.5 35.2 5.7 34.9C3.9 34.6 1.5 34.6 0 35.2C0.6 35.6 1 36.3 1.4 36.9C2.6 38.8 3.6 40.9 4.8 42.8C5.6 44.1 6.4 45.3 7.3 46.5C8.2 47.7 9.1 48.8 10.1 49.8C12.1 51.8 14.3 53.8 17.2 55C17.9 55.3 18.7 55.5 19.5 55.8C21.4 56.5 22.6 56.7 24.5 57.5C24.9 57.6 25.3 57.9 25.6 57.9H26.6C29 57.9 30 57.4 31.5 56.5C30.4 55.5 29.3 54.7 28.7 53.1C26.5 53.1 25.6 52.5 24.2 51.7C23.2 51.1 22.2 50.4 21.4 49.6C21.1 49.3 19.6 48.5 20.9 48.5C22.2 48.4 23.4 49.5 24.8 50.1C25.4 50.4 26.1 50.7 26.8 50.8C27.6 51 27.7 50.9 28.5 50.7C28.6 50.7 28.8 50.4 28.9 50.3C29 50.2 29.2 49.9 29.2 49.9C28.4 49.8 28.5 49.4 28.2 48.8C27.9 48 28.2 47.2 28.7 46.7C29.2 46.2 30.2 46.1 30.8 46.5C31.4 46.8 31.9 47.4 31.7 48.4C33.5 47.3 36.4 46.6 39.4 46.9C40 46.4 40.7 44.9 41.2 45.5C41.7 46.1 40.4 46.7 40 47.3C38.4 47.5 37.3 48 35.8 48.5C34.9 48.8 33.5 49.4 32.9 50.1C32.7 50.3 32.6 50.8 32.6 51C32.5 51.4 32.8 51.9 32.9 52.2C33.1 52.5 33.3 52.8 33.5 53.1C33.9 53.7 34.1 53.8 34.5 54.2C35.5 55.1 36.6 55.8 37.6 56.8C40.1 59.3 44.6 61.9 44 62.7C43.7 63.1 36.5 59.1 34.7 58C33.2 58.6 31.5 59.3 29.6 59.4C27.5 59.6 25.3 59.4 23.1 59.4H18.8C17.4 59.5 15.9 59.5 14.5 59.5C10.2 59.5 6.1 60 2.3 60.4C3.6 62.7 5.7 64.3 8.2 65.3C10.8 66.4 14 66.7 17.5 67C19.2 67.1 21 67.2 22.8 67.2C24 67.2 25.1 67.3 26.2 67.2C26.4 67.2 26.6 67.1 26.7 67.1C29.9 66.2 33.3 65.4 36.9 65C36.8 64.8 36.6 64.5 36.6 64.2C36.4 63.1 37.2 62.3 38 62.1C38.7 61.9 39.4 62.2 39.8 62.6C40.2 63 40.5 63.6 40.3 64.4C40.3 64.6 40.1 64.7 40.2 64.9C42.7 64.8 46.7 65.1 46.8 65.6C46.8 66.1 39 67.1 35.6 68C33.8 68.4 32.2 68.9 30.6 69.4C29.8 69.6 29.1 70.1 28.4 70.5C27.7 70.9 27 71.3 26.4 71.7C23.8 73.3 21.2 74.5 19.2 76.8C18.3 77.9 17.3 79.3 16.8 80.9C16.5 81.7 16.4 82.7 16.5 83.8C16.6 84.7 16.9 85.6 17.2 86.3C19.4 86.2 21.5 86.3 23.5 86.3C25.5 86.3 27.5 86 29.3 85.7C32.9 85 36.3 84.1 38.9 82.4C40.2 81.6 41.5 80.7 42.7 79.8C46.5 77.1 49.5 73.7 51.3 69.1C52.9 70.4 53.2 70.9 55.2 71.8C58.4 72 62.6 71.7 65.2 71.2C67.8 70.6 70 69.7 72 68.5C76 66.2 80.2 59.1 80.9 59.1C81.6 59.1 80.4 61.1 80.1 62C84.7 61.6 88.7 60.7 92.2 59.2C94 58.4 95.5 57.6 96.9 56.5C98.3 55.4 99.4 54.1 100.6 52.7C103.9 48.6 106.6 43.8 109.3 39.1C109.7 38.3 110.2 37.5 110.8 36.9C111.4 36.3 112.1 35.7 112.9 35.3C111.9 35.5 111 35.8 110.2 36.1C108.9 36.6 107.7 37.2 106.8 38C106.5 38.3 106.1 38.5 105.8 38.8C102.4 41.3 98.7 43.4 95 45.7C90.4 48.4 85.7 51.2 80.9 53.6L80.3 53.9C80.1 54 78.3 57 77.9 56.6C77.6 56.2 80 52.5 81.3 50.4C82.8 47.7 84 44.6 84.7 41.1C84.8 40.4 85 39.7 85 38.9C85.1 37.4 84.7 35.9 84.3 34.6C84.1 34 83.9 33.4 83.6 32.8C83.3 32.2 83.1 31.6 82.8 31.1C82.1 30.1 81.4 29.2 80.6 28.4C81.2 29.7 80.4 30.9 79.3 31.1C78 31.4 77 30.4 77 29.1C76.9 29.1 76.9 29.2 76.8 29.3C75.8 30.5 75 32 74.1 33.3C73.3 34.4 71.9 37.6 71 37.3C70.1 37.1 74.5 30 76.4 26.5C76.5 26.4 76.8 25.8 76.7 25.7C76.6 25.2 76.6 24.7 76.5 24.1C76.4 23.5 76.4 22.9 76.4 22.4C76.4 18.9 77 15.7 77.5 12.7C77.6 12.2 77.5 11.6 77.5 11C77.4 9.2 77.2 7.6 77 6.1C76.5 3.4 76 1.6 75.1 0ZM32 14.4C31.5 14.9 31 14 30.5 13.8C29.9 14.8 29.4 16 29.2 17.5C28.9 19.7 29.2 22.4 29.2 24.8V27.3C29.3 28.9 29.6 30.4 29.7 31.8C30.4 39 36.2 45.4 35.6 45.9C35.1 46.4 28.2 41.5 26.8 33.3C26.4 31.3 26.3 29.1 26.1 26.9C25.6 28.7 25.1 32.2 24.3 32.1C23.5 32.1 24.1 29.9 24 28.7C24 27.6 24 26.3 24.4 25.5C24.6 25 25 24.5 25.2 24C24.2 23.8 23.4 23.1 23.5 22C23.5 21.3 24 20.7 24.5 20.5C25.1 20.2 26 20.3 26.5 20.7C27.2 19 28 16.7 28.8 14.9C29.1 14.3 29.5 13.3 30.2 13.3C30.4 13.3 30.6 13.4 30.8 13.4C31.4 13.5 32.4 13.8 32 14.4ZM32.4 14.8C33.3 13.8 36.8 18.4 38.7 20.4C38.8 19.4 39.5 18.6 40.5 18.6C41.5 18.6 42.3 19.3 42.4 20.3C42.5 21.7 41.5 22.6 40.1 22.3C40.4 23 40.2 23.9 40.3 24.7C40.3 25.2 40.6 25.7 40.7 26.2C40.8 26.7 41 27.2 41.1 27.7C41.8 28 42.4 28.4 42.8 28.9C43.2 29.5 43.2 30.4 43.3 31.2C43.4 32.1 43.6 32.8 44 33.4C44.3 34.1 44.7 34.6 44.9 35.4C45.4 36.9 45.6 38.5 45.8 40.2C46 41.9 46.8 45.3 46.3 45.5C45.7 45.7 42.2 34.7 39.6 29.8C39.3 29.2 38.9 28.6 38.7 27.9C37.9 25.9 37.6 23.5 36.7 21.5C36.1 20.2 35.4 19.1 34.7 17.9C33.9 17 33.1 15.9 32.4 14.8ZM67.2 33.4C67.7 33.7 68.8 34.8 69.2 35.1C68.7 35.7 68.1 36.2 67.6 36.7C67.4 36.9 67.3 37.1 67.1 37.3C65.3 39.8 63.7 42.4 62 45C61.5 43.8 59.1 43.9 58.2 44.6C57.6 45.1 56.5 46.8 56.4 46.7C54.5 46 52.3 45 50.4 44.3C49.3 43.9 48.5 43.5 48 42.5C47.5 41.6 47.2 40.5 47.3 39C47.8 39 48.4 39 48.9 39.1C47.9 38 46.5 37.7 45.5 36.6C45.6 36.3 46 35.3 46.1 35C47.4 35.7 47.7 36.1 49 36.8C48.3 35.5 47.6 35.3 46.9 34.1C47.1 33.8 48.6 32.6 48.9 32.3C49.8 33.4 49.9 34.4 50.8 35.6C50.4 33.5 50.4 31.9 50 29.8C50.7 28.4 52.1 27.7 53.7 27.3C56.9 26.4 61.8 26.6 64.6 27.7C65.8 28.2 67 29 67.7 30.1C67.8 30.3 67.9 30.5 67.9 30.6C67.9 30.8 67.7 31.1 67.6 31.4C67 33 66.6 34.1 67.2 33.4ZM68.5 38.7C69.3 39.3 66.2 44 65.1 46.8C64.6 48.2 64.1 49.6 63.8 51.2C63.6 52 63.5 52.8 63.5 53.7C63.5 54.6 63.4 56.6 63.4 57.5C63.3 58.5 63.8 60.7 66 61.6C68.4 62.5 71.1 60.8 72.5 60.3C74.2 59.7 77.1 56.3 77.5 56.7C77.9 57.1 74.9 60.5 72.4 62.2C71.7 62.6 69.2 64.6 64.4 63.9C62.6 63.6 61.5 62.4 60.5 61.2C59.7 62.2 58.7 63.1 57.6 63.8C56.5 64.5 55.2 65.1 53.5 65.2C52.6 65.2 51.8 65.1 51 65C48.6 64.7 44 63.4 44.4 62.8C44.7 62.2 47.9 63.3 49.8 63.3C51.7 63.3 53.4 62.9 54.8 62.4C56.9 61.6 58.4 60.1 59.3 58C59.4 57.7 59.6 56.2 59.7 55.8C59.8 55.4 59.9 54.7 59.7 54.3C59.5 53.8 58.9 53.3 58.5 52.9C57.1 51.7 55.5 50.7 53.8 50C53.2 49.7 52.6 49.5 52 49.2C50.3 48.4 46.8 46.9 47.2 46.4C47.6 45.9 55.4 48.9 59.1 50.6C59 50.3 58.8 50 58.8 49.5C58.8 48.5 59.5 47.8 60.3 47.6C61.4 47.4 62.4 48.1 62.5 49.2C62.9 48.2 63.2 47.2 63.7 46.3C64.9 44.1 66.2 42 67.7 40C67.9 39.5 68.2 39.1 68.5 38.7ZM88.5 39.6C88.1 42.1 87.1 44.1 86.1 45.9C84.6 48.4 82.9 50.5 81 52.5C81 52.4 81.1 52.4 81.1 52.4C82.4 51.2 83.8 49.9 85.1 48.6C86.4 47.3 87.7 46 88.9 44.6C89.5 43.9 90 43.1 90.6 42.3C92.3 40.1 93.9 37.8 95.2 35.2C96.5 32.6 97.6 29.8 97.9 26.2C98 25 97.9 23.6 97.9 22.4C97.7 20 97.4 17.7 96.9 15.5C96.6 13.9 96.1 12.3 95.8 10.7C95.6 9.8 95.5 9 95.8 8.3C93.8 9.7 92.7 10.8 90.8 12.3C90.1 12.9 88.9 13.7 88.1 14.1C87.3 14.5 86.1 15.2 85.4 15.7C84.7 16.1 84 16.6 83.2 17.1C81.9 17.9 80.6 18.7 80.1 19C80 19.1 79.5 20.3 79.4 21.8C79.4 22 79.5 23.2 79.5 23.3C79.6 23.4 80.8 24.7 81.1 25.1C82.4 26.8 83.2 28.8 84 31C85.1 31.9 86.1 32.9 87 34C87.1 34.1 87.9 33.5 88.8 33.4C89.5 33.3 90.2 33.6 90.6 34.2C91 34.8 91 35.7 90.7 36.2C90.3 36.8 89.3 37.4 88.4 37C88.7 37.9 88.6 38.8 88.5 39.6Z" fill="#FCB137"/>
</svg>
