<svg width="161" height="112" viewBox="0 0 161 112" fill="none" xmlns="http://www.w3.org/2000/svg">
<path d="M39.642 0C45.2554 0 50.1734 0.91844 54.3959 2.75532C58.6681 4.5922 61.9964 7.27305 64.3809 10.7979C66.7654 14.2731 67.9576 18.5177 67.9576 23.5319C67.9576 30.234 65.8712 35.8936 61.6984 40.5106C57.5255 45.1277 52.2598 49.2482 45.9012 52.8723L71.6089 77.8936C74.043 74.5674 77.461 71.0424 79.7578 67.4264C85.1974 58.8626 90.491 53.6349 94.637 49.5064C94.637 49.5064 101.886 43.508 105.215 41.9255C115.239 37.1612 116.002 37.23 120.199 36.126C126.684 34.4197 134.213 33.4478 143.45 33.9336C150.699 34.3149 161 37.6868 161 37.6868C161 37.6868 153.009 36.3648 141.945 37.6868C134.078 38.6268 130.479 38.5089 122.869 40.5106C117.481 41.9281 114.115 44.1089 110.279 47.2187C106.443 50.3285 102.649 54.6475 102.649 54.6475C98.0706 59.6041 95.9024 63.2919 92.3479 71.0424C89.6157 76.9998 87.257 83.9504 83.0842 88.9149L105.215 110.511H82.7861L71.7579 99.7128C68.678 102.195 65.3745 104.355 61.8474 106.191C58.37 108.028 54.5698 109.468 50.4466 110.511C46.3235 111.504 41.778 112 36.8104 112C29.2099 112 22.6525 110.784 17.1384 108.351C11.6243 105.918 7.37698 102.443 4.39638 97.9255C1.46546 93.3582 0 87.9468 0 81.6915C0 76.4787 0.869341 72.0106 2.60802 68.2872C4.39638 64.5142 6.92989 61.2128 10.2085 58.383C13.4872 55.5035 17.4117 52.7731 21.9819 50.1915C19.4981 47.3617 17.3371 44.6064 15.4991 41.9255C13.6611 39.2447 12.2453 36.4894 11.2518 33.6596C10.3079 30.7801 9.83597 27.7021 9.83597 24.4255C9.83597 19.3617 11.0779 15.0177 13.5617 11.3936C16.0456 7.71986 19.5229 4.91489 23.9938 2.97872C28.4647 0.992908 33.6808 0 39.642 0ZM32.3395 60.8404C29.4582 62.6773 26.9744 64.539 24.888 66.4255C22.8016 68.2624 21.1871 70.2979 20.0445 72.5319C18.9516 74.766 18.4052 77.3723 18.4052 80.3511C18.4052 85.4645 20.1936 89.5106 23.7703 92.4894C27.3967 95.4681 32.0663 96.9575 37.7791 96.9575C42.7964 96.9575 47.1928 96.2128 50.9682 94.7234C54.7933 93.1844 58.1217 91.2731 60.9532 88.9894L32.3395 60.8404ZM39.3439 13.8511C35.8169 13.8511 32.7617 14.7695 30.1786 16.6064C27.645 18.4433 26.3783 21.2979 26.3783 25.1702C26.3783 28.2979 27.198 31.2518 28.8373 34.0319C30.5263 36.7624 32.8611 39.7163 35.8417 42.8936C41.0577 40.0142 44.9325 37.1844 47.466 34.4043C50.0492 31.6241 51.3408 28.3972 51.3408 24.7234C51.3408 21.2482 50.1734 18.5674 47.8386 16.6809C45.5038 14.7943 42.6722 13.8511 39.3439 13.8511Z" fill="#51B976"/>
</svg>
