<svg width="459" height="404" viewBox="0 0 459 404" fill="none" xmlns="http://www.w3.org/2000/svg">
<path d="M94.1676 65.8016C97.347 74.6537 101.074 85.0476 99.5742 89.0476C99.3954 89.5245 95.6636 95.8167 93.8882 95.6964C92.1129 95.5762 90.479 95.3428 88.0988 94.5046C78.9285 90.144 72.4564 90.5993 61.5742 82.5476C55.1023 77.7591 50.0742 71.0476 42.5742 64.0476C36.7125 58.5767 32.9003 53.8716 31.8918 52.5359C28.9494 48.6386 26.7238 44.3676 25.6533 41.2223C23.9982 36.3595 19.1753 25.0608 24.3766 19.2813C32.585 10.1605 43.9231 1.62856 48.3052 2.57095C49.9497 2.92461 51.4665 3.52491 53.6242 5.42144C57.5109 8.83778 66.1118 17.0384 75.8233 29.7709C80.428 35.8078 83.9292 41.4098 87.0025 47.9383C90.0758 54.4669 92.6894 61.6859 94.1676 65.8016Z" fill="#93C4A6"/>
<path d="M55.6329 103.961C63.8767 107.148 68.0742 111.548 66.9182 114.207C66.1773 115.911 65.2631 116.336 64.9094 117.047C64.5558 117.758 64.3223 118.458 63.2437 118.808C62.165 119.158 60.3037 119.097 58.1616 118.918C44.1426 117.743 27.8376 116.788 23.7577 116.446C19.4996 116.088 7.75714 117.474 3.60265 108.983C2.55228 106.837 2.27654 103.764 2.67253 101.924C3.74058 96.9625 3.29538 89.3749 6.09595 84.1317C7.03668 82.3705 8.09847 80.2514 9.87656 80.489C15.3264 81.2176 22.0613 85.3889 26.1449 88.167C33.9996 93.5108 48.641 101.259 55.6329 103.961Z" fill="#93C4A6"/>
<path d="M386.437 320.822C378.743 328.209 375.91 335.666 375.718 338.94C377.513 343.933 378.375 346.332 379.678 349.304C381.82 353.342 383.556 356.905 385.444 361.505C389.734 368.944 392.447 375.481 398.216 382.933C402.961 389.062 414.139 399.139 423.928 400.615C427.084 401.091 430.999 400.254 435.415 399.244C444.199 397.234 453.789 390.866 455.574 382.933C457.574 374.048 446.743 362.542 438.574 354.548C433.576 349.656 426.574 341.548 413.074 332.548C402.116 325.242 392.364 315.132 386.437 320.822Z" fill="#93C4A6"/>
<path d="M350.477 346.723C352.945 344.54 355.26 343.453 356.074 343.183C358.824 347.339 359.818 348.47 360.574 350.048C362.144 352.712 369.651 364.657 370.821 375.838C369.561 376.935 367.118 377.746 364.708 378.08C362.298 378.414 359.375 378.578 357.306 373.59C351.647 359.946 348.187 348.748 350.477 346.723Z" fill="#93C4A6"/>
<path d="M94.1676 65.8016C97.347 74.6537 101.074 85.0476 99.5742 89.0476C99.3954 89.5245 95.6636 95.8167 93.8882 95.6964C92.1129 95.5762 90.479 95.3428 88.0988 94.5046C78.9285 90.144 72.4564 90.5993 61.5742 82.5476C55.1023 77.7591 50.0742 71.0476 42.5742 64.0476C36.7125 58.5767 32.9003 53.8716 31.8918 52.5359C28.9494 48.6386 26.7238 44.3676 25.6533 41.2223C23.9982 36.3595 19.1753 25.0608 24.3766 19.2813C32.585 10.1605 43.9231 1.62856 48.3052 2.57095C49.9497 2.92461 51.4665 3.52491 53.6242 5.42144C57.5109 8.83778 66.1118 17.0384 75.8233 29.7709C80.428 35.8078 83.9292 41.4098 87.0025 47.9383C90.0758 54.4669 92.6894 61.6859 94.1676 65.8016Z" stroke="#1E1E1E" stroke-width="5" stroke-linecap="round"/>
<path d="M55.6329 103.961C63.8767 107.148 68.0742 111.548 66.9182 114.207C66.1773 115.911 65.2631 116.336 64.9094 117.047C64.5558 117.758 64.3223 118.458 63.2437 118.808C62.165 119.158 60.3037 119.097 58.1616 118.918C44.1426 117.743 27.8376 116.788 23.7577 116.446C19.4996 116.088 7.75714 117.474 3.60265 108.983C2.55228 106.837 2.27654 103.764 2.67253 101.924C3.74058 96.9625 3.29538 89.3749 6.09595 84.1317C7.03668 82.3705 8.09847 80.2514 9.87656 80.489C15.3264 81.2176 22.0613 85.3889 26.1449 88.167C33.9996 93.5108 48.641 101.259 55.6329 103.961Z" stroke="#1E1E1E" stroke-width="5" stroke-linecap="round"/>
<path d="M386.437 320.822C378.743 328.209 375.91 335.666 375.718 338.94C377.513 343.933 378.375 346.332 379.678 349.304C381.82 353.342 383.556 356.905 385.444 361.505C389.734 368.944 392.447 375.481 398.216 382.933C402.961 389.062 414.139 399.139 423.928 400.615C427.084 401.091 430.999 400.254 435.415 399.244C444.199 397.234 453.789 390.866 455.574 382.933C457.574 374.048 446.743 362.542 438.574 354.548C433.576 349.656 426.574 341.548 413.074 332.548C402.116 325.242 392.364 315.132 386.437 320.822Z" stroke="#1E1E1E" stroke-width="5" stroke-linecap="round"/>
<path d="M350.477 346.723C352.945 344.54 355.26 343.453 356.074 343.183C358.824 347.339 359.818 348.47 360.574 350.048C362.144 352.712 369.651 364.657 370.821 375.838C369.561 376.935 367.118 377.746 364.708 378.08C362.298 378.414 359.375 378.578 357.306 373.59C351.647 359.946 348.187 348.748 350.477 346.723Z" stroke="#1E1E1E" stroke-width="5" stroke-linecap="round"/>
</svg>
