<svg width="326" height="25" viewBox="0 0 326 25" fill="none" xmlns="http://www.w3.org/2000/svg">
<path d="M1.00024 23.0865C3.14699 23.4423 7.1267 23.2075 10.7826 21.9659C14.5919 20.6722 13.9505 14.5767 13.1261 11.2983C12.5387 8.96215 10.4689 7.55391 10.4614 7.72646C10.2131 13.4615 19.7582 16.3199 20.7543 18.2161C21.3958 19.4372 20.5949 20.5926 20.5078 20.9502C19.9683 23.163 25.7252 16.5832 27.725 14.5536C28.3654 13.9036 28.7237 13.0113 29.304 12.5933C32.7532 10.1085 30.3823 20.831 31.376 21.3042C32.3697 21.7773 34.1927 22.0193 36.2672 21.8431C38.4993 21.6537 39.0142 19.1803 39.7663 16.8749C40.8313 13.6105 39.6866 10.9941 38.8622 10.4605C38.3383 10.1213 37.0517 10.2791 36.1302 9.92685C34.2226 9.19769 33.7095 7.79227 33.4605 6.90642C33.1188 5.69115 33.7046 4.5904 34.4492 3.93935C35.1936 3.2885 36.3594 3.04639 37.353 2.92721C37.8467 2.868 38.3467 3.04283 38.6007 3.63162C38.8548 4.22041 38.8548 5.27702 39.1013 5.76264C39.3479 6.24826 39.841 6.13086 40.2594 5.89427C41.1316 5.40104 41.8383 4.82521 42.9963 4.64732C43.6517 4.54666 44.4831 4.58684 44.9887 4.76295C45.8857 5.07539 45.9923 6.00634 46.1592 6.77479C46.2485 7.18612 45.9973 7.66064 45.5839 7.96126C45.1705 8.26188 44.513 8.37928 44.4209 8.49846C44.1695 8.82364 45.4942 9.32561 45.6611 10.2132C45.739 10.6275 45.4992 10.9835 45.0858 11.2823C44.1681 11.9457 42.8444 12.1753 41.8507 12.1771C41.3247 12.178 40.8571 11.7092 40.5209 11.7039C39.8236 11.6928 39.1935 12.7658 37.7864 13.3582C36.3655 13.9563 34.7107 13.8367 33.468 13.6606C32.845 13.5723 32.3896 13.1323 32.1356 12.5399C31.551 11.1767 32.3747 10.0443 32.8752 9.57109C34.0782 8.43399 30.721 7.31911 30.5542 6.43148C30.4763 6.01717 30.716 5.66125 31.2938 5.47981C32.7443 5.02432 34.367 5.53317 35.3607 6.06504C37.4778 7.19823 38.023 8.49668 38.6007 8.97163C38.8944 9.21301 39.6716 8.97696 40.2569 8.97519C40.8421 8.97341 41.3352 9.09081 41.5893 9.7383C42.8723 13.0088 42.3414 15.7151 43.4147 17.6861C43.6286 18.0788 44.3237 18.2197 44.7421 18.1059C46.9362 17.5088 46.6548 15.2669 47.8975 13.842C48.6096 13.0256 49.8077 12.5346 50.8835 12.2375C51.4331 12.0858 52.1238 12.2927 52.4625 12.8228C54.152 15.467 51.1475 17.622 49.7355 19.1091C48.4013 20.5142 45.1805 20.831 42.1894 21.2472C39.2769 21.6526 47.2226 21.3077 62.4117 21.1903C68.2524 21.1452 69.3974 20.4788 70.6401 20.0661C73.3135 19.1783 73.8802 17.0457 74.6323 14.8577C75.0069 13.7678 74.7169 11.8586 74.9635 11.0671C75.21 10.2755 75.7032 10.6277 76.2037 11.1027C78.2629 13.0564 79.8472 17.0101 81.603 20.4094C81.8783 20.9424 82.0189 21.3006 82.1036 21.1298C83.0904 19.1397 84.34 15.9926 85.5877 12.8975C85.8294 12.2977 86.0036 11.8302 86.417 11.8818C90.3766 12.3759 90.4863 17.1488 91.1488 18.0418C92.6716 20.0946 93.9729 13.609 95.9578 11.5331C98.9752 8.3774 102.43 7.20526 105.835 5.48159C106.54 5.12469 107.083 5.06357 107.419 5.29659C109.589 6.80056 107.262 9.79522 107.257 16.6561C107.255 19.3027 109.414 20.2369 110.487 20.8879C115.411 23.8746 124.516 21.4287 126.757 20.7189C130.616 19.4969 132.485 18.2268 136.051 15.8628C138.288 14.38 138.801 12.4208 139.797 10.2293C140.912 7.77627 140.962 5.54741 141.376 4.40896C142.065 2.51087 140.136 7.7816 139.222 9.14951C138.569 10.1265 141.122 6.72854 143.443 5.30371C144.699 4.53269 145.938 4.11368 146.439 4.0532C148.348 3.82255 142.965 6.12374 140.97 7.07363C139.976 7.5468 138.975 8.02352 138.228 7.90967C134.495 7.34095 138.472 3.29187 138.225 1.75141C138.126 1.12896 137.486 0.915366 137.314 1.02921C135.837 2.00745 138.303 4.10301 138.968 5.6488C139.123 6.00906 139.299 6.35855 138.973 6.53999C138.646 6.72142 137.824 6.72142 137.154 6.60402C134.47 6.13358 132.505 4.35204 129.932 4.52459C129.081 4.58167 128.361 5.4051 127.937 6.0597C127.514 6.71431 127.514 7.41872 127.925 7.8403C129.575 9.53364 132.983 8.73505 134.649 9.38609C136.879 10.2573 132.166 12.7623 132.408 14.6016C132.529 15.5285 135.473 14.6692 137.214 14.196C139.704 13.5193 140.295 11.1187 141.042 9.57287C141.796 8.01304 144.439 7.55391 146.434 7.07897C146.934 6.95979 147.428 6.84238 147.928 6.89931C148.429 6.95623 148.922 7.19103 149.176 7.9577C149.43 8.72437 149.43 10.0158 149.183 10.7398C148.855 11.7051 146.949 11.7021 145.619 11.9369C143.432 12.3231 146.939 15.0143 146.611 16.2594C146.485 16.7352 145.624 16.6828 145.039 16.5067C142.121 15.6287 141.132 12.7765 140.053 11.293C139.761 10.8906 139.637 10.4071 139.635 10.3413C139.593 9.23485 141.291 12.9971 141.956 14.5429C142.62 16.0854 143.283 17.743 144.031 19.1678C144.227 19.5418 144.608 19.8776 145.106 20.1177C146.15 20.6209 147.597 20.4788 148.757 20.1248C151.242 19.3669 152.906 16.5761 156.473 13.3742C157.71 12.2638 158.555 10.4107 159.797 8.9823C161.811 6.66806 161.713 13.8225 161.964 16.5547C162.019 17.154 162.211 17.622 162.378 17.6291C166.138 17.7895 166.195 11.3535 167.438 10.3982C168.347 9.69933 168.855 13.4631 169.02 15.7205C169.054 16.1994 170.509 14.196 171.752 13.8972C174.202 13.3079 174.165 16.6757 175.821 17.9831C177.318 19.1647 181.118 19.6428 184.776 20.4752C191.44 21.9915 193.749 19.2941 196.158 17.7572C198.503 16.2602 199.398 14.3205 200.232 12.1255C200.611 11.1274 200.733 9.4608 200.404 7.50588C200.268 6.69626 199.418 6.37278 198.832 6.13264C197.802 5.70964 195.602 5.65413 192.865 5.83024C191.749 5.90206 191.279 6.35855 190.943 6.71609C190.607 7.07363 190.442 7.42584 190.604 7.72468C191.353 9.10694 194.576 9.09081 197.072 9.03566C197.632 9.02329 197.904 8.50736 198.073 7.91501C198.806 5.35234 196.589 3.88243 195.919 2.4576C195.759 2.11866 196.081 1.74785 196.576 1.56641C197.77 1.12929 199.233 1.50238 200.145 1.91506C201.248 2.41438 201.231 4.45521 201.477 6.17711C201.553 6.70411 203.218 5.30193 204.294 4.76828C204.816 4.50928 205.534 4.58684 206.037 4.82165C207.117 5.32574 207.372 6.3621 207.621 7.18925C207.934 8.22915 207.377 9.20821 206.632 9.80056C205.939 10.3521 204.229 10.2791 202.488 10.2204C200.122 10.1406 199.074 8.85956 198.496 8.56072C196.215 7.38071 194.766 11.3392 193.513 13.0593C193.24 13.4343 193.59 13.8296 193.921 14.1284C194.612 14.7515 196.733 14.904 199.139 14.7279C200.092 14.6581 200.394 14.1996 200.563 13.7833C200.913 12.9248 200.897 11.944 201.228 11.4086C201.945 10.2506 202.889 13.8331 203.467 14.3668C203.764 14.6409 204.538 14.5482 204.877 14.0199C205.811 12.5622 205.051 10.9941 204.966 10.6366C204.639 9.25397 206.042 13.8296 205.552 15.5497C205.047 17.3199 201.081 17.0386 198.748 17.3925C198.232 17.4708 197.754 17.6291 197.336 17.5135C195.4 16.9787 195.094 14.6763 193.187 13.5432C191.204 12.3657 189.282 12.2962 188.535 12.4119C184.728 13.0009 194.576 17.8639 197.072 19.1678C198.118 19.7143 198.735 20.3578 199.811 20.5357C201.022 20.736 202.222 20.3614 203.298 19.8295C205.621 18.681 206.371 15.4021 208.279 11.3001C208.954 9.84713 210.689 9.45013 211.683 9.33095C212.177 9.27174 212.677 9.44657 213.013 9.74186C214.689 11.2137 213.354 13.9434 212.525 15.6102C211.69 17.2886 210.037 18.4545 207.798 19.7619C206.878 20.2994 205.718 20.3578 205.793 20.2422C207.911 16.9652 211.521 17.0457 213.591 16.0335C217.103 14.3158 224.461 15.8503 227.368 16.0887C229.477 16.2616 231.768 16.6828 233.512 16.1545C237.883 14.8297 233.606 10.1723 232.284 6.73388C232.002 6.00161 231.783 5.66125 231.945 5.83202C233.817 7.80653 234.264 10.6206 234.685 13.0576C234.86 14.072 235.265 15.0178 235.761 15.7881C235.984 16.1357 236.585 16.2061 237.168 16.0318C238.582 15.6087 239.743 14.0822 240.985 12.9544C241.434 12.5473 242.064 12.8832 242.482 13.239C244.896 15.2918 244.729 18.4581 245.306 18.6395C249.179 19.8556 252.344 13.73 260.804 11.4726C265.134 10.3175 269.289 9.56753 270.878 9.44835C275.003 9.13897 263.83 14.5411 262.747 16.9105C262.486 17.4817 262.824 17.9778 263.155 18.2784C263.486 18.579 263.98 18.6964 264.48 18.5808C266.977 18.004 269.289 15.8645 270.876 14.6087C272.39 13.4101 272.621 17.5082 273.199 18.1023C273.816 18.737 275.276 17.3979 276.021 17.0403C276.876 16.6297 277.767 18.4545 278.593 19.5805C278.952 20.069 279.749 20.1195 280.499 19.8864C282.283 19.3317 283.246 17.8746 284.072 17.22C284.933 16.5383 286.234 18.4581 287.143 18.9917C287.632 19.279 288.545 19.1731 289.215 19.0557C292.084 18.5529 293.865 15.6226 295.115 14.3739C295.397 14.092 296.186 14.1925 296.607 14.4273C299.028 15.7782 297.526 18.8138 298.268 19.054C301.867 20.2185 303 15.3878 304.907 14.3721C305.904 13.8417 307.318 14.6656 308.23 14.6674C308.678 14.6683 308.977 14.1996 309.064 14.3116C310.379 16.0031 307.492 18.8031 307.321 20.8274C307.145 22.8944 312.294 21.4287 319.252 21.5425C320.443 21.7773 320.114 22.2469 318.958 23.1933C317.803 24.1396 326.532 18.4349 324.5 19.8864" stroke="#51B976" stroke-width="2" stroke-linecap="round"/>
</svg>
