<svg width="64" height="44" viewBox="0 0 64 44" fill="none" xmlns="http://www.w3.org/2000/svg">
<path d="M47.7033 39.2486C47.6817 38.9789 47.6601 38.7091 47.7299 37.9282C47.7997 37.1472 47.9616 35.8632 48.3039 34.7432C48.6462 33.6232 49.1642 32.7061 49.7331 31.9261C50.302 31.1461 50.9062 30.5311 51.5196 29.9931C52.133 29.455 52.7372 29.0127 53.3452 28.6391C53.9532 28.2655 54.5467 27.9742 55.1437 27.754C56.301 27.3271 57.1395 27.2382 57.6391 27.2381C58.8935 27.2376 59.9265 27.8349 60.4964 28.2064C61.4915 28.8549 61.804 29.8379 62.0456 30.6413C62.2341 31.2681 62.0577 31.8344 61.7206 32.6681C61.4793 33.265 60.8283 33.7098 59.8052 34.3363C59.3172 34.6352 58.5311 34.8333 57.4119 35.078C56.1537 35.3531 55.3768 35.3904 54.8038 35.4875C54.3041 35.5722 53.3892 35.7789 52.5067 36.03C51.6242 36.2811 50.8042 36.5832 50.0149 36.9331C49.2256 37.2829 48.4919 37.6714 47.9413 38.0063C47.0179 38.5681 46.5926 38.9537 46.4778 38.8306C46.3491 38.6926 46.5249 38.2004 46.8334 36.8342C47.1419 35.4679 47.6922 33.1913 48.0188 30.6751C48.3454 28.1589 48.4317 25.4723 48.2496 22.8042C48.0675 20.1362 47.6143 17.5682 47.1489 15.5817C46.6835 13.5953 46.2195 12.2681 45.6406 10.937C45.0617 9.60595 44.382 8.31117 43.8591 7.40678C43.3363 6.5024 42.991 6.02764 42.4895 5.44859C41.9879 4.86953 41.3405 4.20056 40.8937 3.76422C40.239 3.12481 39.5121 2.66415 38.5339 2.14182C37.5685 1.62638 36.5688 1.54985 35.7749 1.5062C35.0469 1.46617 34.2692 1.62473 33.5777 1.81518C33.1897 1.92205 32.7534 2.27702 32.1441 2.83139C31.5897 3.33588 31.3344 3.96645 31.1006 4.55842C30.8195 5.27036 30.7233 6.01489 30.6579 6.64544C30.5928 7.27302 30.6788 7.92208 30.7928 8.5474C30.8995 9.13328 31.2118 9.66644 31.5647 10.2262C31.7532 10.5251 32.0148 10.8183 32.5796 11.3193C33.1445 11.8202 34.0185 12.5107 34.9758 13.1848C35.9332 13.8588 36.9474 14.4954 37.9015 15.2118C38.8556 15.9282 39.7188 16.705 40.3685 17.3642C41.0181 18.0233 41.4281 18.5413 41.8875 19.2882C42.3469 20.0352 42.8433 20.9955 43.3363 22.2455C43.8294 23.4954 44.3041 25.006 44.6944 26.6852C45.0846 28.3643 45.3759 30.1662 45.5314 32.0979C45.6869 34.0296 45.6977 36.0365 45.6169 36.2827C45.5361 36.5289 45.3635 34.9536 45.1073 33.5594C44.8511 32.1653 44.5167 31 43.9182 29.6012C43.3196 28.2024 42.4672 26.6055 41.5156 25.2272C40.564 23.8489 39.5389 22.7375 38.6117 21.8683C37.6844 20.9991 36.8859 20.4056 36.2966 20.0082C35.3766 19.3878 34.4772 19.0765 33.4984 18.8097C32.6256 18.5718 31.7084 18.7142 30.8922 18.9207C29.7412 19.2119 29.0041 20.1722 28.4797 20.9297C28.0934 21.4877 27.9549 21.9731 27.8357 22.4222C27.74 22.7827 27.6086 23.4215 27.5418 24.1002C27.4063 25.4746 27.5939 26.5804 27.768 27.2173C27.9696 27.9548 28.5513 28.619 29.2135 29.3198C29.5874 29.7155 30.1132 30.1178 30.7844 30.5612C31.4557 31.0045 32.2757 31.4577 33.6315 32.0041C34.9873 32.5504 36.8539 33.1762 37.945 33.5418C39.0361 33.9073 39.295 33.9936 39.8061 34.2593C40.3171 34.525 41.0724 34.9673 41.7582 35.465C42.444 35.9626 43.0375 36.5021 43.8018 37.2926C44.566 38.083 45.4832 39.108 45.9826 39.6577C46.4821 40.2073 46.536 40.2505 46.6243 40.3276" stroke="#568366" stroke-width="3" stroke-linecap="round"/>
<path d="M14.1787 40.9327C13.848 40.6433 12.8714 39.9775 11.495 39.0601C9.53698 37.7553 8.41851 35.7175 8.04112 34.4134C7.83556 33.703 8.14353 33.0635 8.39314 32.5846C8.67847 32.0373 9.16515 31.6222 9.76836 31.3096C10.5267 30.9167 11.3362 30.9106 11.9193 30.9623C13.004 31.0584 13.7766 32.1985 14.5 33.2765C15.241 34.8919 15.8273 36.6483 15.9526 37.7397C15.9952 38.4178 15.9952 39.348 15.9952 40.3063" stroke="#568366" stroke-width="3" stroke-linecap="round"/>
<path d="M16.4962 40.7447C16.4756 40.0626 16.4549 39.3805 16.7233 37.9852C16.9917 36.59 17.5498 34.5022 17.8683 33.3647C18.4326 31.3497 19.895 30.0161 20.7735 29.6898C21.0881 29.5729 21.4634 29.7198 21.88 29.8965C22.8541 30.3096 23.3826 31.884 23.7096 34.107C23.9683 35.8657 22.6623 37.9962 21.9063 39.2696C20.5752 40.5098 18.775 41.6417 18.1918 41.767C17.8981 41.8096 17.6087 41.8096 17.06 41.7469" stroke="#568366" stroke-width="3" stroke-linecap="round"/>
<path d="M12.2368 40.7447C11.053 39.7469 8.96715 38.5348 7.60634 38.1358C5.6265 37.5553 2.99025 38.1966 2.25926 38.4885C1.94662 38.6133 1.71494 38.9677 1.53736 39.3845C1.40576 39.6935 1.6498 40.0538 1.91006 40.3874C2.14175 40.6843 2.79482 40.9721 3.83523 41.4303C5.08675 41.9814 6.86064 42.2468 9.08773 42.4243C10.2993 42.521 11.6869 42.4572 12.8861 42.3846C14.0853 42.3119 15.0568 42.1879 15.6916 42.124C16.3265 42.0601 16.5952 42.0601 16.872 42.0601" stroke="#568366" stroke-width="3" stroke-linecap="round"/>
</svg>
