<svg width="71" height="30" viewBox="0 0 71 30" fill="none" xmlns="http://www.w3.org/2000/svg">
<path d="M5.73258 27.2255C5.52355 27.0041 5.31452 26.7828 4.93634 26.1893C4.55816 25.5957 4.01715 24.6367 3.51712 23.4049C3.0171 22.1731 2.57446 20.6976 2.24191 19.0215C1.90937 17.3453 1.70035 15.5133 1.59267 14.299C1.43733 12.5473 1.50958 11.765 1.57758 11.2882C1.74835 10.0909 2.29054 9.0957 3.08379 8.00995C3.4239 7.54444 3.79359 7.34189 4.07862 7.23644C4.33121 7.143 4.63789 7.16714 5.01552 7.29047C6.08269 7.639 6.6119 8.80284 7.15869 9.94428C7.33237 10.3069 7.46813 10.7724 7.64269 11.5232C7.81725 12.2739 8.00169 13.3068 8.0844 14.3307C8.16712 15.3546 8.14253 16.3382 7.79173 18.511C7.44093 20.6838 6.76467 24.0159 6.40399 25.7755C6.04332 27.5351 6.01873 27.6212 7.168 25.1695C8.31727 22.7178 10.6412 17.7258 12.4223 14.3549C14.2035 10.984 15.3716 9.38558 16.1025 8.45148C17.0397 7.25362 17.5789 6.80982 18.7257 5.84685C19.6166 5.09879 21.2743 3.99859 22.2948 3.31729C23.3154 2.636 23.6842 2.45157 24.2493 2.25204C24.8143 2.05252 25.5644 1.84349 26.2335 1.70507C27.4585 1.4517 28.5552 1.46642 29.6387 1.57131C30.8706 1.69056 31.9466 2.15983 32.7584 2.63675C33.9999 3.36602 34.3457 4.25642 34.5093 4.94796C34.702 5.76294 34.0022 6.4443 33.0791 7.19546C32.5579 7.61954 31.6339 7.96002 30.6045 8.3261C30.1687 8.48106 29.8947 8.53233 28.9377 8.8468C27.9806 9.16127 26.3453 9.72687 24.8881 10.3379C23.4309 10.949 22.2013 11.5884 21.0884 12.2313C19.9754 12.8742 19.0164 13.5013 18.2211 14.0764C16.7901 15.1112 16.0181 15.884 15.6095 16.3052C15.1637 16.7649 14.5415 17.2984 13.9096 17.9739C13.3314 18.592 12.9244 18.9527 12.6098 19.3479C12.3776 19.6395 11.9631 20.0873 11.3606 20.8872C10.7581 21.6872 9.97123 22.8184 9.52896 23.4688C9.0004 24.246 8.43278 25.0823 7.53985 26.2547C7.15105 26.7385 6.89284 26.9967 6.69835 27.185C6.50385 27.3734 6.38089 27.484 6.06791 27.5608" stroke="#568366" stroke-width="3" stroke-linecap="round"/>
<path d="M51.1723 26.4661C51.0513 26.4358 50.9302 26.4055 50.2826 25.5525C49.6351 24.6995 48.4647 23.0247 47.6953 21.7987C46.9259 20.5726 46.593 19.8462 46.3004 19.0281C46.0078 18.2099 45.7656 17.322 45.6258 16.6528C45.3995 15.57 45.4547 14.77 45.5207 14.1593C45.6091 13.3418 46.2273 12.6595 46.7523 12.2961C47.2546 11.9484 48.0489 12.2278 48.8157 12.6347C49.1234 12.7981 49.4376 13.2753 50.1976 14.8491C50.7898 16.0753 51.5832 18.2692 52.0249 18.8822C52.4665 19.4952 52.4766 18.4863 52.6987 16.4733C52.9208 14.4603 53.3547 11.4739 53.7295 9.441C54.1044 7.40814 54.407 6.41939 54.674 5.67797C55.1146 4.45398 55.5731 3.71176 55.9795 3.14248C56.7359 2.08262 57.6283 1.75442 58.2334 1.64512C58.3848 1.61776 58.6003 1.78163 58.9153 2.16671C59.4113 2.77295 59.4979 3.72521 59.62 4.65955C59.6892 5.18831 59.7018 5.83604 59.5308 7.4349C59.3597 9.03376 58.9864 11.5662 58.3855 14.0311C57.7845 16.4959 56.9673 18.8165 56.2184 20.6425C55.4695 22.4685 54.8137 23.7297 54.1984 24.7477C53.5831 25.7656 53.0282 26.5021 52.6868 26.9371C52.3454 27.372 52.2345 27.483 52.2176 27.4846C52.0917 27.4972 52.5867 27.0289 53.0138 26.5512C53.2271 26.3126 53.4006 26.0533 54.1953 25.1213C54.9901 24.1892 56.3925 22.585 57.5539 21.4055C58.7152 20.2259 59.593 19.5197 60.3075 18.9995C61.022 18.4793 61.5467 18.1665 62.16 17.8893C63.4317 17.3146 64.4386 17.1108 65.0431 17.075C66.3372 16.9984 67.0873 17.5263 67.8071 18.0966C68.5695 18.7006 68.7003 19.8988 68.798 20.6949C68.8679 21.2642 68.5909 21.8347 68.2899 22.4182C68.1229 22.742 67.7048 23.05 66.9196 23.5625C66.3767 23.9167 65.4583 24.3271 64.6728 24.6618C63.8874 24.9964 63.2417 25.2083 62.6518 25.3628C60.966 25.8045 60.682 25.783 59.9619 25.9454C58.1877 26.3453 57.8393 26.2417 57.345 26.3028C56.8205 26.3435 55.926 26.415 55.1827 26.4404C54.8834 26.4557 54.7421 26.4759 54.5966 26.4966" stroke="#568366" stroke-width="3" stroke-linecap="round"/>
<path d="M42.3671 26.4049C41.9938 26.304 41.6205 26.2031 40.9539 25.8535C40.2874 25.5039 39.339 24.9086 38.689 24.4607C37.6873 23.7704 37.1414 23.1668 36.6484 22.5523C36.0855 21.8506 35.7341 20.967 35.4846 20.2341C35.1531 19.2605 35.3143 18.164 35.5531 17.4542C35.7558 16.8517 36.6553 16.45 37.2232 16.3308C37.7726 16.2154 38.3396 16.4775 38.6956 16.6808C39.0071 16.8587 39.3583 17.2202 39.9117 17.9098C40.2616 18.3458 40.6366 19.0433 41.2481 20.3752C41.8595 21.7072 42.6667 23.6746 43.1077 24.779C43.5992 26.0649 43.6613 26.3428 43.6765 26.5359C43.6817 26.6382 43.6817 26.7491 43.6817 26.8635" stroke="#568366" stroke-width="3" stroke-linecap="round"/>
<path d="M27.9667 27.3527C27.7347 27.2619 27.5026 27.1711 27.1813 26.5341C26.86 25.8971 26.4564 24.7166 26.2333 23.5586C26.0103 22.4007 25.98 21.3009 26.0149 20.3964C26.0497 19.4919 26.1506 18.8159 26.3035 18.1649C26.602 16.8941 27.0376 16.0226 27.469 15.4486C28.0082 14.7311 28.5767 14.3594 28.8917 14.2778C29.0515 14.2364 29.227 14.2769 29.3809 14.3579C29.5349 14.4389 29.666 14.5802 29.774 14.7942C29.8819 15.0082 29.9626 15.2907 30.0042 16.1778C30.0458 17.0649 30.0458 18.548 29.9398 20.0688C29.8339 21.5895 29.622 23.1029 29.4372 24.1651C29.2524 25.2272 29.101 25.7922 28.9726 26.2498C28.8442 26.7073 28.7433 27.0402 28.6762 27.242C28.6091 27.4438 28.5788 27.5044 28.5476 27.5667" stroke="#568366" stroke-width="3" stroke-linecap="round"/>
</svg>
