<svg width="65" height="59" viewBox="0 0 65 59" fill="none" xmlns="http://www.w3.org/2000/svg">
<path d="M16.5232 3.06177L61.9267 20.3879L48.1882 55.5976L2.81852 38.5302L16.5232 3.06177Z" fill="#FAFAFA"/>
<path d="M20.0633 3.20784L58.4187 17.4368C61.0556 18.415 62.9049 20.4248 61.9267 23.0618L50.7628 52.7764C49.7845 55.4133 46.8267 56.7704 44.1897 55.7922L5.83433 41.5633C3.19739 40.585 1.84028 37.6272 2.81852 34.9902L15.9436 4.56175C16.9219 1.92482 17.4263 2.2296 20.0633 3.20784Z" fill="#FAFAFA"/>
<path d="M61.9267 23.0618L31.483 30.8972L15.9436 4.56175" fill="#FAFAFA"/>
<path d="M61.9267 23.0618C62.9049 20.4248 61.0556 18.415 58.4187 17.4368L20.0633 3.20784C17.4263 2.2296 16.9219 1.92482 15.9436 4.56175M61.9267 23.0618L50.7628 52.7764C49.7845 55.4133 46.8267 56.7704 44.1897 55.7922L5.83433 41.5633C3.19739 40.585 1.84028 37.6272 2.81852 34.9902L15.9436 4.56175M61.9267 23.0618L31.483 30.8972L15.9436 4.56175M16.5232 3.06177L61.9267 20.3879L48.1882 55.5976L2.81852 38.5302L16.5232 3.06177Z" stroke="#444444" stroke-width="5" stroke-linecap="round" stroke-linejoin="round"/>
</svg>
