<svg width="424" height="270" viewBox="0 0 424 270" fill="none" xmlns="http://www.w3.org/2000/svg">
<path d="M275.243 133.217C275.703 130.938 277.584 128.296 277.535 127.62C277.392 125.636 271.035 129.62 257.035 111.12C253.251 106.12 246.535 91.6197 253.035 70.6197C255.643 59.4541 264.366 46.5614 273.632 39.6197C287.058 29.5599 302.035 25.6197 324.035 30.6197C349.795 36.4744 367.916 63.6242 365.535 88.6197C364.38 100.739 357.549 118.684 347.535 126.62" stroke="#568366" stroke-width="3" stroke-linecap="round"/>
<path d="M347.482 127.534C347.839 128.39 348.45 130.542 349.598 135.275C350.33 138.293 351.316 142.575 352.187 145.76C353.607 150.954 354.684 153.284 354.99 153.931C355.126 154.218 355.189 154.435 357.008 159.27C358.828 164.105 362.394 173.555 365.265 182.738C368.136 191.92 370.204 200.55 371.377 207.438C372.549 214.326 372.763 219.211 372.784 222.548C372.805 225.885 372.627 227.525 372 230.474C371.374 233.423 370.304 237.63 369.432 240.529C368.56 243.428 367.918 244.89 367.106 246.481C365.416 249.793 363.555 252.437 361.528 254.681C358.794 257.707 356.099 259.646 353.715 260.919C349.854 262.983 346.838 263.9 346.065 264.116C345.716 264.213 345.47 264.331 342.542 264.903C339.615 265.476 334.016 266.51 330.74 267.042C326.697 267.7 325.407 267.646 322.69 267.737C320.438 267.811 316.407 267.72 314.153 267.666C310.849 267.587 307.421 267.039 304.861 266.747C302.041 266.426 300.339 265.883 296.388 264.914C293.456 264.195 291.876 263.292 289.106 262.266C288.166 261.887 287.585 261.633 286.922 261.221C286.508 260.917 285.937 260.417 285.35 259.903" stroke="#568366" stroke-width="3" stroke-linecap="round"/>
<path d="M257.147 139.096C254.955 139.527 252.656 139.887 250.025 140.713C247.622 141.467 244.811 145.445 243.461 147.7C243.169 148.188 242.566 150.494 241.433 154.286C240.9 156.069 240.62 157.615 240.366 159.242C240.112 160.87 239.933 162.546 239.841 165.745C239.75 168.944 239.75 173.616 240.463 182.797C241.176 191.979 242.602 205.529 243.337 212.92C244.072 220.31 244.072 221.13 244.125 222.034C244.236 223.904 244.396 225.856 244.164 228.598C243.793 232.985 242.884 235.84 242.633 236.468C241.824 238.488 240.333 240.624 237.368 245.348C235.46 248.389 234.132 250.068 233.47 251.23C231.962 253.88 230.889 256.258 231.032 257.535C231.162 258.706 232.003 259.361 232.506 259.738C233.883 260.772 236.359 260.839 238.384 261.251C242.159 262.019 244.934 262.352 245.811 262.549C246.469 262.697 247.579 262.853 249.201 263.052C250.822 263.251 252.926 263.465 257.094 263.593C261.263 263.721 267.432 263.756 271.144 263.668C277.441 263.518 279.573 262.931 281.451 262.606C284.77 262.032 286.456 261.061 288.082 259.818C289.679 258.596 290.065 255.698 290.571 253.107C290.894 251.45 290.716 250.181 290.788 246.218C290.854 242.577 290.718 235.623 290.503 228.047C290.288 220.471 289.931 212.484 289.73 208.262C289.528 204.04 289.492 203.826 289.492 201.291C289.491 198.756 289.527 193.906 289.581 191.212C289.657 187.421 290.711 184.789 292.241 181.231C293.108 179.217 294.489 177.897 296.651 176.273C298.854 175.475 299.788 175.332 301.228 175.402C301.556 175.438 301.77 175.474 302.422 175.727" stroke="#568366" stroke-width="3" stroke-linecap="round"/>
<path d="M300.694 145.147C302.477 145.575 305.57 147.578 309.454 150.975C312.59 153.717 314.159 156.482 315.701 159.672C316.71 161.758 317.885 164.93 319.616 170.558C321.346 176.186 323.522 184.209 325.373 192.265C327.225 200.321 328.687 208.166 330.301 216.572" stroke="#568366" stroke-width="3" stroke-linecap="round"/>
<path d="M338.729 142.337C336.287 143.233 333.056 145.743 331.314 148.342C330.801 149.107 330.597 150.453 330.128 153.075C329.658 155.697 329.123 159.655 328.723 162.175C327.956 167.002 327.422 168.621 326.128 171.627C324.972 173.564 324.325 174.355 323.515 174.968C323.315 175.113 323.137 175.256 322.737 175.403" stroke="#568366" stroke-width="3" stroke-linecap="round"/>
<path d="M329.004 202.633C330.217 202.99 331.697 203.316 333.725 203.532C336.345 203.811 339.042 203.392 341.021 202.978C343.464 202.468 345.6 200.228 347.887 197.657C349.647 195.678 350.682 192.349 351.814 188.525C353.101 184.18 353.316 180.743 353.478 178.928C353.533 177.22 353.605 175.805 353.713 174.423C353.749 173.612 353.749 172.578 353.749 171.513" stroke="#568366" stroke-width="3" stroke-linecap="round"/>
<path d="M275.409 134.33C275.409 134.054 275.393 133.7 275.283 133.186C275.128 132.46 274.778 131.993 274.627 131.789C274.453 131.554 274.156 131.305 273.638 130.954C273.304 130.727 272.77 130.489 272.336 130.302C271.582 129.978 271.031 129.861 270.204 129.775C269.574 129.709 268.509 129.681 267.843 129.664C267.177 129.647 266.942 129.663 266.52 129.765C266.099 129.867 265.498 130.053 264.933 130.263C264.367 130.473 263.856 130.7 263.418 130.931C262.98 131.162 262.631 131.389 262.187 131.758C261.743 132.127 261.216 132.63 260.68 133.202C260.144 133.774 259.616 134.399 259.166 135.042C258.715 135.685 258.358 136.326 258.004 137.103C257.649 137.88 257.308 138.773 257.116 139.306C256.874 139.979 256.81 140.282 256.659 140.849C256.547 141.267 256.402 141.959 256.286 142.655C256.17 143.352 256.097 144.034 256.068 144.889C256.038 145.743 256.054 146.75 256.075 147.35C256.095 147.95 256.12 148.112 256.254 148.557C256.388 149.002 256.632 149.725 256.81 150.194C257.067 150.87 257.414 151.319 257.807 151.782C258.113 152.143 258.35 152.314 258.648 152.485C259.259 152.837 259.842 153.044 260.218 153.121C260.718 153.225 261.219 153.216 261.567 153.196C261.795 153.183 262.283 152.98 263.126 152.564C263.575 152.341 264.017 152.001 264.365 151.732C264.713 151.463 264.94 151.252 265.276 150.88C265.613 150.507 266.051 149.979 266.411 149.501C266.771 149.022 267.038 148.608 267.846 147.152C268.654 145.697 269.994 143.212 271.118 141.368C272.243 139.524 273.111 138.396 273.79 137.595C274.469 136.794 274.932 136.356 275.211 136.102C275.563 135.781 275.801 135.594 276.286 135.198C276.616 134.929 277.153 134.567 277.494 134.338C277.835 134.109 277.973 134.036 278.446 133.828C278.919 133.62 279.723 133.279 280.405 133.042C281.087 132.806 281.622 132.684 282.049 132.605C282.475 132.526 282.775 132.493 283.368 132.509C283.962 132.525 284.838 132.59 285.477 132.664C286.115 132.738 286.489 132.819 286.892 132.962C287.736 133.262 288.34 133.648 288.671 133.889C288.926 134.074 289.063 134.296 289.137 134.5C289.169 134.589 289.162 134.656 289.137 134.73C289.084 134.893 288.795 135.189 288.041 135.923C287.508 136.44 286.661 137.241 285.804 138.24C284.947 139.238 284.102 140.408 283.322 141.745C282.542 143.082 281.852 144.551 281.322 145.941C280.792 147.332 280.443 148.598 280.186 149.831C279.929 151.064 279.775 152.225 279.712 153.176C279.648 154.128 279.681 154.834 279.718 155.291C279.77 155.938 280.008 156.558 280.355 157.34C280.643 157.986 280.993 158.333 281.278 158.627C281.716 159.077 282.197 159.415 282.716 159.681C283.544 160.105 284.378 160.252 284.946 160.314C285.253 160.347 285.604 160.335 286.031 160.282C286.459 160.229 286.954 160.124 287.384 159.992C287.813 159.861 288.162 159.706 288.687 159.383C289.212 159.06 289.902 158.573 290.497 158.071C291.092 157.568 291.571 157.065 291.883 156.716C292.195 156.367 292.325 156.189 292.668 155.768C293.011 155.347 293.563 154.689 294.48 153.409C295.398 152.128 296.664 150.245 297.508 149.031C298.351 147.817 298.733 147.33 299.071 146.856C299.41 146.381 299.694 145.935 299.926 145.546C300.157 145.158 300.328 144.841 300.497 144.463C300.853 143.665 301.093 142.83 301.253 142.17C301.358 141.734 301.365 141.271 301.352 140.767C301.335 140.042 300.907 139.294 300.519 138.673C300.283 138.295 299.912 137.825 299.606 137.46C299.3 137.096 299.057 136.86 298.72 136.601C298.384 136.342 297.962 136.066 297.557 135.842C297.153 135.619 296.78 135.457 296.413 135.332C296.046 135.208 295.697 135.127 295.091 135.077C294.484 135.027 293.632 135.011 293.01 135.043C292.018 135.094 291.427 135.321 291.022 135.481C290.483 135.732 290.189 135.83 289.868 135.835C289.786 135.83 289.697 135.83 289.605 135.83" stroke="#568366" stroke-width="3" stroke-linecap="round"/>
<path d="M270.488 142.227C270.31 142.666 270.072 143.232 269.818 143.863C269.702 144.149 269.645 144.379 269.482 144.878C269.318 145.377 269.058 146.14 268.892 146.74C268.726 147.34 268.661 147.754 268.623 148.288C268.586 148.822 268.578 149.464 268.638 150.131C268.699 150.798 268.829 151.472 268.961 151.99C269.093 152.508 269.223 152.849 269.407 153.223C269.796 154.012 270.176 154.535 270.453 154.85C270.841 155.289 271.396 155.707 271.964 156.068C272.476 156.391 273.028 156.594 273.621 156.782C274.276 156.99 274.922 157.07 275.661 157.124C277.491 157.145 277.712 157.087 277.892 157.006C277.983 156.949 278.072 156.859 278.164 156.767" stroke="#568366" stroke-width="3" stroke-linecap="round"/>
<path d="M244.561 128.988C244.417 128.719 244.146 128.204 243.632 127.364C243.339 126.886 242.885 126.364 242.354 125.835C241.823 125.307 241.205 124.805 240.478 124.336C239.752 123.867 238.936 123.446 238.368 123.179C237.8 122.913 237.504 122.814 237.159 122.723C236.814 122.632 236.429 122.551 235.71 122.492C234.992 122.432 233.952 122.397 233.331 122.387C232.71 122.378 232.54 122.395 232.111 122.499C230.996 122.768 230.112 123.065 229.764 123.205C229.485 123.318 228.838 123.562 227.692 124.161C227.038 124.503 226.313 125.056 225.486 125.755C224.659 126.453 223.771 127.313 222.965 128.362C222.158 129.41 221.459 130.62 220.977 131.598C220.496 132.575 220.254 133.283 220.067 134.051C219.879 134.82 219.754 135.626 219.685 136.271C219.616 136.915 219.607 137.372 219.633 137.831C219.686 138.742 219.868 139.515 220.076 140.187C220.314 140.961 220.754 141.706 221.174 142.392C221.565 143.032 221.977 143.464 222.36 143.83C222.865 144.311 223.497 144.686 224.008 144.958C224.37 145.15 224.891 145.24 225.721 145.33C226.796 145.448 227.573 145.322 228.086 145.192C228.452 145.099 229.012 144.873 229.518 144.646C230.024 144.419 230.454 144.177 230.864 143.877C231.274 143.578 231.65 143.228 232.239 142.555C232.827 141.882 233.616 140.896 234.251 140.056C234.886 139.217 235.343 138.553 236.076 137.643C236.809 136.732 237.804 135.593 238.527 134.818C239.251 134.044 239.672 133.667 240.077 133.339C240.842 132.719 241.426 132.384 242.056 132.15C242.503 131.984 243.224 131.772 243.782 131.621C244.34 131.469 244.716 131.397 245.17 131.365C245.624 131.333 246.144 131.342 246.69 131.409C247.235 131.476 247.791 131.602 248.436 131.81C249.081 132.018 249.798 132.305 250.391 132.587C250.985 132.869 251.433 133.138 251.87 133.447C252.743 134.064 253.27 134.582 253.505 134.844C253.858 135.238 254.076 135.559 254.515 136.134C254.665 136.329 254.747 136.457 254.805 136.565C254.837 136.62 254.873 136.674 254.937 136.811" stroke="#568366" stroke-width="3" stroke-linecap="round"/>
<path d="M224.106 126.434C223.873 126.273 223.404 126.109 222.619 125.987C222.186 125.919 221.672 125.945 221.158 125.999C220.644 126.053 220.142 126.16 219.359 126.444C218.576 126.728 217.527 127.186 216.736 127.587C215.944 127.988 215.442 128.32 214.969 128.683C214.495 129.047 214.065 129.432 213.601 129.945C213.137 130.457 212.653 131.085 212.256 131.695C211.859 132.305 211.563 132.878 211.281 133.586C210.998 134.294 210.738 135.119 210.573 135.705C210.408 136.291 210.345 136.614 210.304 137.296C210.262 137.977 210.244 139.008 210.258 139.692C210.271 140.375 210.316 140.68 210.424 141.074C210.532 141.469 210.702 141.944 210.889 142.364C211.075 142.783 211.272 143.133 211.571 143.546C211.87 143.959 212.264 144.425 212.633 144.8C213.002 145.174 213.334 145.443 213.823 145.766C214.312 146.088 214.949 146.455 215.501 146.725C216.052 146.995 216.501 147.157 216.987 147.289C217.473 147.422 217.984 147.52 218.566 147.575C219.147 147.631 219.784 147.64 220.376 147.577C220.968 147.514 221.497 147.38 221.935 147.239C222.374 147.098 222.705 146.955 222.984 146.8C223.262 146.645 223.477 146.484 223.699 146.318" stroke="#568366" stroke-width="3" stroke-linecap="round"/>
<path d="M209.329 136.023C209.043 136.292 208.357 137.094 207.461 138.229C206.906 138.933 206.722 139.363 206.488 139.907C206.312 140.318 206.004 140.998 205.784 141.69C205.564 142.381 205.439 143.063 205.365 143.893C205.291 144.724 205.273 145.683 205.349 146.603C205.425 147.523 205.596 148.374 205.863 149.162C206.13 149.951 206.488 150.65 206.888 151.279C207.288 151.908 207.718 152.446 207.998 152.781C208.278 153.117 208.395 153.233 208.764 153.531C209.133 153.828 209.752 154.303 210.438 154.741C211.124 155.178 211.859 155.564 212.498 155.848C213.136 156.131 213.656 156.302 214.139 156.421C215.043 156.644 215.908 156.667 216.667 156.649C217.285 156.635 217.811 156.487 218.519 156.217C218.983 156.039 219.629 155.696 220.235 155.31C220.841 154.924 221.379 154.485 221.786 154.084C222.193 153.683 222.453 153.333 222.793 152.772C223.133 152.211 223.546 151.449 223.772 151.016C224.106 150.115 224.215 149.182 224.264 148.46C224.314 148.052 224.412 147.559 224.514 147.051" stroke="#568366" stroke-width="3" stroke-linecap="round"/>
<path d="M211.597 157.577C211.638 158.008 211.679 158.439 211.937 164.328C212.194 170.218 212.666 181.552 212.92 187.463C213.173 193.374 213.194 193.518 213.246 197.852C213.297 202.187 213.379 210.709 213.381 215.56C213.382 220.412 213.3 221.336 213.145 222.223C212.649 225.051 211.953 226.16 211.138 227.762C210.658 228.704 209.768 229.754 208.328 231.392C206.889 233.031 204.856 235.187 203.552 236.667C201.656 238.82 201.042 239.997 200.721 240.731C200.077 242.207 200.086 243.705 200.158 244.572C200.232 245.459 201.326 246.571 203.137 247.619C203.753 247.975 204.632 248.188 205.959 248.49C207.286 248.792 209.072 249.1 210.793 249.258C212.515 249.417 214.116 249.417 215.136 249.438C216.156 249.458 216.547 249.499 218.667 249.541C220.788 249.583 224.628 249.624 226.678 249.635C228.872 249.625 230.149 249.583 231.963 249.47C232.647 249.377 232.853 249.213 233.064 249.044" stroke="#568366" stroke-width="3" stroke-linecap="round"/>
<path d="M300.308 16.5694C300.728 16.99 302.323 19.029 304.646 22.3158C305.651 23.7387 306.057 24.8316 306.461 25.9573C306.865 27.0829 307.192 28.2511 307.664 30.0561C308.137 31.8611 308.744 34.2675 309.057 35.6006C309.37 36.9338 309.37 37.1207 309.37 37.3132" stroke="#568366" stroke-width="3" stroke-linecap="round"/>
<path d="M300.965 17.3547C300.714 17.0246 300.462 16.6946 300.451 15.7073C300.439 14.7201 300.675 13.0856 300.891 12.0236C301.2 10.4992 301.756 9.61235 302.405 8.63105C303.18 7.45715 304.215 6.53199 305.385 5.57522C306.099 4.99138 307.12 4.2884 308.283 3.65666C309.445 3.02492 310.734 2.50629 311.649 2.17625C313.051 1.67097 314.12 1.5438 315.228 1.5038C316.401 1.46147 317.329 1.78002 318.033 2.15149C318.923 2.62073 319.584 3.4283 320.036 4.33031C320.543 5.34413 320.697 6.42817 320.785 7.33876C320.87 8.22957 320.714 9.00133 320.54 9.68188C320.338 10.4763 319.686 11.4907 318.729 12.6472C317.752 13.8277 316.322 14.4305 314.726 15.0796C313.75 15.4766 312.344 15.7602 311.419 15.9619C310.079 16.2542 308.784 16.2436 307.31 16.1883C306.684 16.1488 306.307 16.086 305.437 15.8257C304.567 15.5654 303.215 15.1097 301.823 14.6401" stroke="#568366" stroke-width="3" stroke-linecap="round"/>
<path d="M299.584 16.6403C298.527 15.835 296.906 14.7534 295.432 14.332C294.374 14.0294 293.239 14.1162 292.336 14.1398C291.587 14.1593 290.574 14.4791 289.338 14.9068C288.335 15.2538 287.633 15.6702 286.938 16.1757C285.924 16.9121 285.157 17.859 284.65 18.556C283.734 19.8144 283.615 21.3504 283.614 22.3434C283.613 23.6212 284.739 24.4164 286.188 25.273C286.887 25.6862 287.674 25.7676 288.497 25.8945C289.437 26.0394 290.357 25.9119 291.298 25.6909C292.569 25.3924 293.753 24.7551 294.861 24.0595C295.489 23.6654 296.157 23.0496 296.789 22.4122C297.42 21.7747 297.97 21.0989 298.513 20.2872C299.055 19.4754 299.574 18.5482 299.92 17.8269C300.265 17.1056 300.423 16.6184 300.584 16.1164" stroke="#568366" stroke-width="3" stroke-linecap="round"/>
<path d="M273.042 87.2794C272.747 87.1398 272.192 86.5794 271.469 85.5136C271.098 84.9674 270.924 84.285 270.742 83.5733C270.561 82.8617 270.429 82.1096 270.369 81.4003C270.254 80.0516 270.355 79.3146 270.437 79.0887C270.495 78.9292 270.62 78.6922 270.718 78.5567C270.817 78.4213 270.894 78.398 270.973 78.4209C271.148 78.4717 271.341 78.8879 271.688 79.9625C271.935 80.7254 272.198 81.9677 272.365 82.6454C272.554 83.4109 272.658 83.7213 272.821 84.2636C273.041 84.9911 273.245 85.6013 273.304 85.9881C273.324 86.3362 273.278 86.5893 273.184 86.7379C273.137 86.8012 273.09 86.84 273.042 86.88" stroke="#568366" stroke-width="3" stroke-linecap="round"/>
<path d="M283.992 87.1384C284.317 87.4021 284.943 87.848 285.911 88.4033C286.403 88.6851 286.973 88.8189 287.497 88.9185C288.491 89.1073 289.144 89.0497 289.565 88.9719C290.244 88.8464 290.944 88.4876 291.487 88.1085C291.917 87.8085 292.385 87.2674 292.932 86.5485C293.412 85.9185 293.57 85.2613 293.726 84.7379C293.852 84.199 293.907 83.8263 293.904 83.6543C293.9 83.5753 293.892 83.5133 293.884 83.4494" stroke="#568366" stroke-width="3" stroke-linecap="round"/>
<path d="M303.115 78.9639C303.053 78.7834 302.646 77.8799 301.993 76.3545C301.691 75.6495 301.547 75.0447 301.416 74.377C301.144 72.9961 301.107 72.1681 301.141 71.8951C301.205 71.3737 301.304 70.9942 301.379 70.9171C301.484 70.8094 301.703 70.9401 301.885 71.0666C302.426 71.4441 302.426 72.0742 302.578 72.511C302.708 72.8871 302.831 73.3926 302.966 73.8677C303.143 74.4919 303.296 75.0736 303.401 75.3677C303.468 75.5559 303.582 75.9316 303.814 76.6079C304.29 77.9995 304.204 78.6197 304.079 78.9521C304.036 79.0663 303.876 79.1354 303.728 79.2187C303.468 79.3658 303.056 79.0968 302.767 78.8699C302.631 78.7631 302.337 77.9486 301.907 76.6943C301.736 76.1639 301.659 75.849 301.594 75.357C301.528 74.865 301.474 74.2056 301.419 73.5262" stroke="#568366" stroke-width="3" stroke-linecap="round"/>
<path d="M139.408 187.514C138.931 187.345 138.158 186.992 137.266 186.524C136.695 186.225 136.311 185.892 135.887 185.482C135.39 185.002 135.063 184.446 134.773 183.913C134.605 183.603 134.441 183.19 134.291 182.689C134.141 182.188 134.022 181.605 133.943 180.859C133.863 180.113 133.828 179.222 134.137 176.73C134.445 174.239 135.098 170.175 135.452 168.021C135.806 165.868 135.841 165.748 135.887 165.68C135.933 165.611 135.989 165.597 136.05 165.618C136.187 165.666 136.323 165.894 136.622 166.422C136.841 166.808 137.182 167.442 137.404 167.834C137.627 168.226 137.719 168.36 138.257 169.015C138.795 169.669 139.778 170.842 140.502 171.898C141.226 172.955 141.661 173.861 141.962 174.625C142.264 175.39 142.418 175.987 142.529 176.877C142.64 177.767 142.704 178.932 142.62 180.118C142.537 181.305 142.305 182.477 142.056 183.379C141.807 184.282 141.547 184.878 141.284 185.41C141.02 185.942 140.76 186.392 140.602 186.697C140.373 187.139 140.21 187.512 140.047 187.736C140.028 187.763 140.094 187.56 140.19 187.364C140.286 187.168 140.398 186.972 141.277 185.969C142.157 184.965 143.799 183.161 144.898 182.039C145.997 180.916 146.502 180.53 147.194 180.103C147.886 179.676 148.75 179.22 149.468 178.883C150.187 178.546 150.734 178.343 151.087 178.22C151.906 177.936 152.537 177.977 152.896 178.115C153.188 178.227 153.361 178.684 153.5 179.244C153.621 179.73 153.504 180.23 153.384 180.742C153.306 181.074 153.138 181.541 152.781 182.24C152.424 182.938 151.87 183.851 151.475 184.423C151.081 184.995 150.863 185.198 149.951 185.735C149.039 186.271 147.438 187.135 146.554 187.601C145.67 188.066 145.551 188.109 145.317 188.155C145.084 188.201 144.74 188.25 144.036 188.279C143.332 188.308 142.28 188.315 141.706 188.315C141.068 188.308 140.891 188.259 140.689 188.177C140.6 188.138 140.537 188.103 140.471 188.067" stroke="#568366" stroke-width="3" stroke-linecap="round"/>
<path d="M393.236 184.476C392.984 182.847 392.732 181.219 392.659 179.129C392.586 177.04 392.701 174.54 393.104 171.314C393.508 168.087 394.196 164.211 395.135 160.562C396.075 156.913 397.244 153.61 398.638 150.395C400.033 147.179 401.615 144.151 402.66 142.27C403.705 140.389 404.164 139.747 404.962 138.865C406.816 136.819 408.593 135.68 409.599 135.874C410.115 135.973 410.399 136.733 410.45 138.107C410.501 139.481 410.249 141.614 408.811 146.647C407.374 151.68 404.759 159.548 402.104 166.698C399.449 173.848 396.834 180.041 394.071 186.492" stroke="#568366" stroke-width="3" stroke-linecap="round"/>
<path d="M392.819 185.519C392.108 184.807 391.397 184.096 390.4 182.744C389.403 181.391 388.141 179.418 387.262 177.932C386.383 176.445 385.924 175.505 385.263 173.736C384.602 171.967 383.754 169.398 383.156 166.996C382.558 164.594 382.237 162.438 382.094 160.823C381.864 158.206 382.114 156.997 382.275 156.697C382.355 156.549 382.483 156.442 382.68 156.337C382.876 156.232 383.152 156.14 383.511 156.231C384.361 156.444 384.871 157.063 385.216 157.697C385.459 158.141 385.792 158.858 387.173 162.459C388.555 166.06 390.963 172.528 392.307 176.308C393.651 180.088 393.858 180.982 393.987 181.65C394.116 182.317 394.162 182.73 394.209 183.155" stroke="#568366" stroke-width="3" stroke-linecap="round"/>
<path d="M406.722 188.577C406.859 187.797 407.343 185.514 408.141 182.229C409.03 178.566 410.492 177.116 411.18 176.437C411.386 176.233 411.817 176.319 412.279 176.515C412.843 176.754 413.023 177.407 413.116 178.259C413.292 179.884 412.934 182.399 412.161 185.082C411.506 187.356 410.201 188.504 409.84 188.876C409.817 188.9 410.144 188.606 411.399 187.936C412.654 187.267 414.834 186.234 416.266 185.634C418.277 184.791 419.598 184.777 420.663 184.88C421.304 184.943 421.641 185.493 421.919 185.978C422.143 186.369 421.968 186.791 421.772 187.184C421.153 188.425 419.749 188.876 416.882 189.548C415.514 189.868 414.694 189.828 413.556 189.954C412.579 190.081 410.789 190.333 409.581 190.463C408.372 190.593 407.799 190.593 407.208 190.593" stroke="#568366" stroke-width="3" stroke-linecap="round"/>
<path d="M42.3698 133.195C42.2679 133.427 42.1659 133.659 42.0739 134.012C41.982 134.366 41.9032 134.834 41.8649 135.302C41.8267 135.77 41.8313 136.225 41.8522 136.561C41.886 137.103 41.9902 137.454 42.1298 137.8C42.3252 138.282 42.6404 138.639 42.9316 138.938C43.1131 139.124 43.3944 139.347 43.6697 139.553C43.945 139.758 44.2138 139.929 44.4335 140.057C44.8087 140.275 45.2281 140.433 45.6676 140.583C45.9908 140.693 46.4031 140.738 46.88 140.778C47.226 140.806 47.5048 140.762 47.8429 140.692C48.0486 140.649 48.3154 140.557 48.5512 140.463C48.9907 140.288 49.3585 140.032 49.7274 139.734C49.9265 139.573 50.124 139.361 50.2894 139.168C50.4547 138.975 50.5752 138.799 50.7485 138.451C50.9219 138.103 51.1444 137.588 51.2984 137.066C51.4524 136.543 51.5312 136.029 51.5718 135.576C51.6124 135.123 51.6124 134.748 51.5938 134.415C51.5753 134.083 51.5382 133.805 51.4264 133.379C51.3146 132.953 51.1292 132.387 51.0198 132.068C50.8903 131.691 50.6824 131.409 50.2348 130.923C49.9785 130.645 49.5832 130.382 49.2948 130.192C49.0064 130.003 48.8163 129.915 48.5979 129.832C48.3795 129.75 48.1384 129.676 47.8543 129.617C47.5702 129.558 47.2504 129.516 46.9906 129.494C46.7308 129.473 46.5408 129.473 46.2945 129.503C46.0483 129.533 45.7517 129.593 45.4853 129.675C44.9819 129.83 44.7206 129.988 44.5926 130.081C44.3505 130.257 44.0616 130.539 43.7511 130.933C43.5713 131.161 43.4174 131.498 43.2526 131.916C43.0877 132.333 42.9348 132.834 42.8421 133.124C42.7494 133.415 42.7216 133.479 42.6929 133.546" stroke="#568366" stroke-width="3" stroke-linecap="round"/>
<path d="M46.0128 128.504C44.5484 127.042 43.4484 124.977 43.2063 122.561C43.0373 120.875 43.5116 119.56 43.8175 118.762C44.4997 116.982 46.3325 115.486 47.6854 114.679C49.3144 113.709 51.2258 114.14 52.5096 114.478C54.2879 114.947 55.6335 116.633 56.5137 118.015C57.1533 119.02 57.3492 120.166 57.5025 121.106C57.6896 122.253 57.592 123.498 57.4173 124.625C57.0629 126.911 55.3822 128.913 54.2954 129.904C54.0094 130.165 53.5862 130.363 53.9928 130.323C55.6478 130.161 58.1485 129.557 60.2846 129.48C62.4843 129.401 65.0542 130.559 66.4795 131.329C68.2242 132.273 68.9027 133.848 69.3988 135.35C69.7059 136.28 69.5211 137.358 69.3359 138.462C69.1119 139.797 68.3186 141.085 67.5636 142.136C66.3701 143.798 64.0016 144.115 61.7576 144.456C58.7232 144.917 58.0334 144.36 57.1127 143.867C55.3779 142.939 53.9967 141.049 53.6901 140.666C53.3509 140.242 56.1137 144.125 57.0407 145.964C57.4406 146.757 57.4815 147.622 57.5035 148.366C57.5255 149.109 57.0907 150.163 56.271 151.508C54.7638 153.982 53.0823 155.009 51.9165 155.715C51.0096 156.265 49.9416 156.309 49.1005 156.364C47.9795 156.437 46.4384 156.006 44.9596 155.426C43.4541 154.835 42.5314 153.443 41.4988 151.22C40.9622 150.065 41.1005 148.533 41.1768 147.066C41.2869 144.95 42.7827 142.899 43.1659 142.249C44.5041 139.981 39.6999 145.759 39.1098 146.23C37.7001 147.352 35.8474 147.69 34.308 147.747C33.0773 147.792 31.4002 146.473 30.2154 145.534C29.2277 144.751 28.5819 143.07 28.0875 141.482C27.7435 140.376 27.8556 139.34 27.8882 138.629C27.922 137.891 28.5089 136.453 29.2756 134.711C30.0191 133.021 31.641 131.538 33.1672 130.415C34.7061 129.283 35.5277 129.513 37.1691 129.501C38.1634 129.494 39.0591 130.256 39.3137 130.586C39.5292 130.865 38.3414 130.74 37.2937 130.61C35.6057 130.4 33.8718 129.625 32.5034 128.969C30.59 128.051 30.0726 126.95 29.295 125.276C28.8978 124.422 28.799 122.987 28.7875 121.236C28.7719 118.865 29.9568 117.37 30.7584 116.467C31.239 115.926 32.0831 115.328 34.2067 114.417C35.4041 113.904 36.4474 114.249 37.1506 114.49C38.3602 114.904 39.2538 116.021 39.7509 116.605C40.2184 117.155 40.8117 118.583 41.1548 119.423C41.4499 120.146 41.8445 121.154 42.1633 121.999C42.2189 122.187 42.2406 122.317 42.2952 122.503C42.3498 122.69 42.4366 122.929 42.5919 123.504" stroke="#568366" stroke-width="3" stroke-linecap="round"/>
<path d="M28.7765 143.306C28.4726 143.523 27.0569 144.416 24.8777 145.817C23.3612 146.792 22.6386 147.536 22.0057 148.331C20.8691 149.761 20.269 151.088 19.9963 151.83C19.5874 152.943 18.7815 154.871 18.0582 157.029C17.6549 158.232 17.3546 159.633 16.8724 161.406C16.5274 162.675 16.454 164.064 16.1586 165.531C16.0287 166.176 15.8849 166.607 15.7201 168.481C15.5553 170.355 15.3599 173.654 15.3461 175.886C15.3177 180.471 16.0783 181.369 16.1671 182.118C16.24 182.732 16.952 184.365 17.3398 185.604C17.4503 185.957 17.6138 186.242 17.5934 186.439C17.4698 187.633 14.7929 186.529 13.0498 186.08C11.9588 185.799 10.0404 185.326 7.83884 184.538C5.6805 183.766 5.31427 182.891 4.49423 182.047C3.20288 180.719 2.40122 179.606 1.89301 178.516C1.15227 176.929 1.62625 174.887 1.95584 174.184C2.49527 173.034 3.77485 172.714 4.52022 172.472C5.0783 172.291 5.8774 172.295 6.66948 172.492C7.41316 172.677 8.76808 173.365 10.3624 174.9C10.9591 175.474 11.2535 175.999 11.9867 176.941C12.6534 177.797 13.2034 178.477 14.3432 180.304C14.9379 181.257 15.6362 182.833 16.177 183.872C16.3199 184.146 16.4296 184.399 16.6046 184.499C16.7992 184.609 16.9342 184.03 17.174 183.017C17.7031 180.783 18.2039 178.531 18.6641 177.174C19.2587 175.42 19.6072 174.229 19.9818 173.483C20.1878 173.072 21.115 171.932 22.5495 170.464C23.8989 169.083 26.1095 169.226 27.2391 169.422C27.6471 169.493 28.0292 169.772 28.3575 170.133C29.1307 170.982 28.8871 173.137 28.3414 175.455C27.9232 177.231 26.9582 178.324 26.3694 179.141C24.3875 181.893 24.0425 182.775 23.6468 183.378C22.8893 184.532 21.8715 185.211 21.3992 185.649C20.8681 186.141 20.0532 186.679 19.3167 187.107C19.1512 187.207 18.9993 187.293 18.8559 187.371C18.7124 187.448 18.5822 187.513 18.448 187.58" stroke="#568366" stroke-width="3" stroke-linecap="round"/>
<path d="M200.188 187.017C200.036 186.84 199.885 186.664 198.645 184.779C197.405 182.894 195.081 179.308 192.406 174.479C189.731 169.651 186.776 163.689 185.051 160.037C183.326 156.385 182.922 155.223 182.676 154.435C182.1 152.59 181.894 151.656 181.779 150.271C181.494 146.819 182.172 145.738 182.39 145.085C182.439 144.939 182.555 144.818 182.695 144.728C182.987 144.54 183.548 144.636 184.185 144.89C185.25 145.315 185.794 146.367 186.382 147.02C186.949 147.65 187.325 148.409 188.205 150.027C188.412 150.408 188.6 150.603 189.184 152.046C189.768 153.489 190.753 156.166 191.298 157.697C192.123 160.012 192.276 160.81 192.583 161.652C192.836 162.345 193.068 163.333 193.564 164.495C194.424 166.507 194.649 167.85 194.867 168.656C195.202 169.894 196.201 172.302 196.64 173.925C197.125 175.717 198.067 178.387 198.413 179.83C198.601 180.612 198.808 181.526 198.962 182.446C199.224 184.011 199.422 184.641 199.613 185.864C199.661 186.172 199.652 186.4 199.715 186.568C199.778 186.735 199.905 186.837 200.033 186.825C200.894 186.751 200.52 183.588 200.088 181.207C199.926 180.316 199.755 178.939 199.488 177.08C199.064 174.129 198.508 171.396 198.262 169.886C198.137 169.126 197.841 167.913 197.688 166.966C197.513 165.881 197.738 164.902 198.03 163.624C198.203 162.869 199.087 162.5 199.853 162.306C200.175 162.225 200.518 162.369 200.937 162.635C202.127 163.391 202.33 164.357 202.534 164.995C203.006 166.465 203.53 169.4 203.81 171.076C204.038 172.439 203.786 173.568 203.659 174.519C203.415 176.34 203.379 178.561 203.111 180.295C202.875 181.822 202.842 182.599 202.689 183.671C202.562 184.13 202.408 184.49 202.281 184.82C202.229 184.999 202.204 185.202 201.948 185.792" stroke="#568366" stroke-width="3" stroke-linecap="round"/>
<path d="M32.4279 187.232C32.7915 185.898 33.2214 183.393 33.8766 179.592C34.2207 177.597 34.8653 175.519 35.4347 173.865C36.4176 171.012 38.1118 168.632 39.7787 166.597C41.5141 164.479 43.7793 163.478 45.127 163.125C46.5214 162.759 47.4859 163.352 48.1913 163.841C48.5477 164.089 48.622 164.546 48.6679 164.912C48.8001 165.967 46.9184 168.511 44.6352 172.599C43.8927 173.929 43.3586 174.556 42.5073 175.544C40.6274 177.725 39.348 179.484 38.8759 180.215C37.3406 182.593 36.2282 183.707 35.6597 184.519C34.9582 185.522 34.4814 186.157 33.991 186.77C33.8679 186.924 33.7467 187.076 33.7145 186.926C33.433 185.62 36.0831 183.604 39.3053 181.346C41.5287 179.788 43.715 178.663 45.3107 178.553C45.9363 178.509 46.5978 179.177 47.2403 179.925C47.5222 180.254 47.5796 180.583 47.5961 180.89C47.679 182.432 44.536 184.587 42.7204 186.003C40.6756 187.598 39.6869 187.568 38.7391 187.889C36.8692 188.303 36.0133 188.547 35.2473 188.762C35.0324 188.793 34.79 188.793 34.5402 188.793" stroke="#568366" stroke-width="3" stroke-linecap="round"/>
<path d="M58.7859 187.14C58.1798 185.867 56.534 182.514 54.4984 178.26C53.3098 175.777 53.1543 174.259 53.2898 171.69C53.3282 170.961 53.642 170.611 53.901 170.32C54.5024 169.645 55.8415 170.881 56.6405 171.388C57.3638 171.847 58.0769 172.868 58.8902 173.789C59.8459 174.872 60.3748 177.297 60.6374 180.38C60.72 181.349 60.8064 182.661 60.9125 184.009C60.9456 184.429 61.2307 184.265 61.3855 184.096C61.9688 183.459 62.0591 182.399 62.5798 181.389C63.0634 180.45 63.6204 179.857 64.2173 179.244C64.8378 178.607 65.8521 178.538 67.0777 178.537C67.576 178.537 67.9681 178.751 68.3042 178.949C69.0701 179.4 69.072 180.34 69.1482 181.197C69.2576 182.428 68.4916 183.707 68.0787 184.779C67.7599 185.606 66.7209 186.339 65.4338 187.016C64.35 187.585 63.3816 187.965 62.5546 188.195C62.1271 188.393 61.6963 188.548 61.284 188.624C61.0838 188.67 60.9019 188.731 60.3472 188.793" stroke="#568366" stroke-width="3" stroke-linecap="round"/>
<path d="M104.43 187.599C104.188 187.417 102.548 184.596 100.13 180.084C99.1864 178.322 98.9861 177.543 98.649 175.834C98.312 174.125 97.8877 171.489 97.6843 168.221C97.4808 164.953 97.5111 161.135 97.7086 157.622C97.9061 154.109 98.2697 151.018 98.7602 148.349C99.2506 145.681 99.8567 143.529 100.481 141.312" stroke="#568366" stroke-width="3" stroke-linecap="round"/>
<path d="M101.032 142.138C101.366 145.927 101.699 149.715 101.977 156.137C102.255 162.559 102.467 171.5 102.622 176.454C102.776 181.408 102.867 182.105 102.914 183.146C102.961 184.187 102.961 185.551 102.961 186.956" stroke="#568366" stroke-width="3" stroke-linecap="round"/>
</svg>
