<svg width="260" height="329" viewBox="0 0 260 329" fill="none" xmlns="http://www.w3.org/2000/svg">
<path d="M245 0C253.284 0 260 6.71573 260 15V313.297C260 321.581 253.284 328.297 245 328.297H15C6.71573 328.297 0 321.581 0 313.297V15C2.39667e-06 6.71573 6.71573 4.02661e-08 15 0H245ZM20.9727 18.4092C18.2112 18.4092 15.9727 20.6478 15.9727 23.4092V261.933C15.9727 264.694 18.2112 266.933 20.9727 266.933H239.915C242.676 266.932 244.915 264.694 244.915 261.933V23.4092C244.915 20.6479 242.676 18.4094 239.915 18.4092H20.9727Z" fill="#F4F7EC"/>
</svg>
