<svg width="89" height="70" viewBox="0 0 89 70" fill="none" xmlns="http://www.w3.org/2000/svg">
<path d="M11.1077 46.6436C10.5118 47.7758 9.2812 49.8189 7.16673 52.9099C6.9377 53.2446 1.32832 59.7573 1.50404 59.9458C1.86576 60.3337 3.37565 59.0867 5.36283 58.257C9.36911 56.5842 13.4946 55.2705 17.7373 54.3526C18.8704 54.1075 19.0491 54.0777 19.3236 53.7761" stroke="white" stroke-width="3" stroke-linecap="round"/>
<path d="M11.1691 45.9467C5.8374 36.1719 8.32423 23.3998 19.0742 12.2878C34.9802 -4.15389 65.9167 0.446224 76.8682 11.1647C87.3962 21.4687 92.5483 40.102 79.1083 55.9647C65.4555 72.0786 31.0252 72.3233 19.0742 54.3967" stroke="white" stroke-width="3" stroke-linecap="round"/>
<circle cx="33.9094" cy="35.1936" r="3.36" fill="white"/>
<circle cx="49.0294" cy="35.1936" r="3.36" fill="white"/>
<circle cx="64.1494" cy="35.1936" r="3.36" fill="white"/>
</svg>
