<svg width="194" height="49" viewBox="0 0 194 49" fill="none" xmlns="http://www.w3.org/2000/svg" xmlns:xlink="http://www.w3.org/1999/xlink">
<rect width="194" height="49" rx="8" fill="#51B976"/>
<rect width="178.176" height="39.936" transform="translate(7.91199 4.53198)" fill="#51B976"/>
<circle cx="27.88" cy="24.5" r="19.968" fill="#51B976"/>
<path d="M28.9045 7.604C33.0688 7.60426 36.4566 11.0295 36.5783 15.3022C40.5838 15.563 43.7521 18.893 43.7521 22.9644C43.752 26.074 41.9022 28.7488 39.2443 29.9565C39.6783 30.8768 39.9221 31.9049 39.9221 32.9897C39.9219 36.9219 36.7341 40.1096 32.8019 40.1099C30.6415 40.1099 28.7064 39.1467 27.4006 37.6274C26.2425 38.4427 24.8317 38.9233 23.3078 38.9233C19.3755 38.9233 16.1879 35.7354 16.1877 31.8032C16.1877 30.4782 16.5504 29.2378 17.1808 28.1753C14.1707 27.1359 12.008 24.2789 12.008 20.9155C12.0083 16.6743 15.4464 13.236 19.6877 13.2358C20.31 13.2358 20.9149 13.3119 21.4943 13.4517C22.3816 10.0821 25.3625 7.604 28.9045 7.604ZM27.0109 23.2319C26.7847 23.948 26.4575 24.6188 26.0441 25.2271C27.0785 25.658 27.9875 26.3275 28.7072 27.1646C28.9247 27.0114 29.1505 26.8692 29.3849 26.7407C28.8299 25.76 28.4838 24.6458 28.4084 23.4575C27.9292 23.426 27.4622 23.3502 27.0109 23.2319Z" fill="#F4F7EC"/>
<g id="Repeat group 1_inner" data-figma-trr="r5u1-0f">
<rect x="20.138" y="10.1691" width="13.6896" height="13.6896" rx="6.84481" stroke="#EBCAE8" stroke-width="1.536"/>
</g>
<use xlink:href="#Repeat%20group%201_inner" transform="translate(42.0661 -8.64548) rotate(72)"/>
<use xlink:href="#Repeat%20group%201_inner" transform="translate(63.2876 28.6902) rotate(144)"/>
<use xlink:href="#Repeat%20group%201_inner" transform="translate(34.3371 60.4103) rotate(-144)"/>
<use xlink:href="#Repeat%20group%201_inner" transform="translate(-4.7768 42.6788) rotate(-72)"/>
<path d="M61.1896 30.6562C60.6167 30.6562 60.0906 30.5938 59.6115 30.4688C59.1375 30.3438 58.7365 30.1719 58.4083 29.9531V27.8125C58.8823 28.0781 59.3458 28.2865 59.799 28.4375C60.2573 28.5833 60.726 28.6562 61.2052 28.6562C61.4708 28.6562 61.7156 28.6328 61.9396 28.5859C62.1687 28.5339 62.3667 28.4557 62.5333 28.3516C62.7 28.2474 62.8302 28.1172 62.924 27.9609C63.0177 27.8047 63.0646 27.6224 63.0646 27.4141C63.0646 27.1172 63.0047 26.8698 62.8849 26.6719C62.7703 26.4688 62.6088 26.2812 62.4005 26.1094C62.1974 25.9375 61.9604 25.7526 61.6896 25.5547C61.3719 25.3255 61.062 25.0651 60.7599 24.7734C60.463 24.4818 60.2182 24.1432 60.0255 23.7578C59.8328 23.3672 59.7365 22.9115 59.7365 22.3906C59.7365 21.8802 59.8276 21.4141 60.0099 20.9922C60.1974 20.5703 60.463 20.2031 60.8068 19.8906C61.1505 19.5781 61.562 19.3385 62.0411 19.1719C62.5255 19 63.0646 18.9141 63.6583 18.9141C64.2469 18.9141 64.7911 18.9792 65.2911 19.1094C65.7963 19.2344 66.2859 19.4271 66.7599 19.6875L65.9083 21.5078C65.5021 21.3151 65.1141 21.1719 64.7443 21.0781C64.3797 20.9792 64.0177 20.9297 63.6583 20.9297C63.4448 20.9297 63.2469 20.9609 63.0646 21.0234C62.8875 21.0807 62.7312 21.1667 62.5958 21.2812C62.4656 21.3906 62.3641 21.5234 62.2911 21.6797C62.2182 21.8359 62.1818 22.013 62.1818 22.2109C62.1818 22.4818 62.2365 22.7135 62.3458 22.9062C62.4604 23.099 62.6219 23.2786 62.8302 23.4453C63.0437 23.6068 63.299 23.7865 63.5958 23.9844C64.0177 24.2604 64.3667 24.5573 64.6427 24.875C64.924 25.1875 65.1323 25.5286 65.2677 25.8984C65.4083 26.2682 65.4786 26.6771 65.4786 27.125C65.4786 27.724 65.3667 28.2448 65.1427 28.6875C64.9187 29.1302 64.6088 29.4974 64.213 29.7891C63.8224 30.0807 63.3667 30.2995 62.8458 30.4453C62.3302 30.5859 61.7781 30.6562 61.1896 30.6562ZM71.2911 30.6562C70.5047 30.6562 69.8406 30.5234 69.299 30.2578C68.7625 29.9922 68.3562 29.6198 68.0802 29.1406C67.8094 28.6562 67.674 28.0911 67.674 27.4453C67.674 27.2786 67.6818 27.0911 67.6974 26.8828C67.7182 26.6693 67.7495 26.4714 67.7911 26.2891L69.3224 19.0781H71.7052L70.1896 26.2578C70.1531 26.4401 70.1219 26.6146 70.0958 26.7812C70.0698 26.9479 70.0568 27.099 70.0568 27.2344C70.0568 27.6823 70.1792 28.026 70.424 28.2656C70.6687 28.5052 71.0385 28.625 71.5333 28.625C71.9969 28.625 72.3797 28.5365 72.6818 28.3594C72.9891 28.1823 73.2365 27.9167 73.424 27.5625C73.6115 27.2083 73.7599 26.7682 73.8693 26.2422L75.3849 19.0781H77.7755L76.2052 26.4688C76.0333 27.276 75.7521 27.9974 75.3615 28.6328C74.976 29.263 74.4526 29.7578 73.7911 30.1172C73.1297 30.4766 72.2963 30.6562 71.2911 30.6562ZM80.7365 30.6562C80.1635 30.6562 79.6375 30.5938 79.1583 30.4688C78.6844 30.3438 78.2833 30.1719 77.9552 29.9531V27.8125C78.4292 28.0781 78.8927 28.2865 79.3458 28.4375C79.8042 28.5833 80.2729 28.6562 80.7521 28.6562C81.0177 28.6562 81.2625 28.6328 81.4865 28.5859C81.7156 28.5339 81.9135 28.4557 82.0802 28.3516C82.2469 28.2474 82.3771 28.1172 82.4708 27.9609C82.5646 27.8047 82.6115 27.6224 82.6115 27.4141C82.6115 27.1172 82.5516 26.8698 82.4318 26.6719C82.3172 26.4688 82.1557 26.2812 81.9474 26.1094C81.7443 25.9375 81.5073 25.7526 81.2365 25.5547C80.9187 25.3255 80.6088 25.0651 80.3068 24.7734C80.0099 24.4818 79.7651 24.1432 79.5724 23.7578C79.3797 23.3672 79.2833 22.9115 79.2833 22.3906C79.2833 21.8802 79.3745 21.4141 79.5568 20.9922C79.7443 20.5703 80.0099 20.2031 80.3536 19.8906C80.6974 19.5781 81.1088 19.3385 81.588 19.1719C82.0724 19 82.6115 18.9141 83.2052 18.9141C83.7937 18.9141 84.338 18.9792 84.838 19.1094C85.3432 19.2344 85.8328 19.4271 86.3068 19.6875L85.4552 21.5078C85.049 21.3151 84.6609 21.1719 84.2911 21.0781C83.9266 20.9792 83.5646 20.9297 83.2052 20.9297C82.9917 20.9297 82.7937 20.9609 82.6115 21.0234C82.4344 21.0807 82.2781 21.1667 82.1427 21.2812C82.0125 21.3906 81.9109 21.5234 81.838 21.6797C81.7651 21.8359 81.7286 22.013 81.7286 22.2109C81.7286 22.4818 81.7833 22.7135 81.8927 22.9062C82.0073 23.099 82.1687 23.2786 82.3771 23.4453C82.5906 23.6068 82.8458 23.7865 83.1427 23.9844C83.5646 24.2604 83.9135 24.5573 84.1896 24.875C84.4708 25.1875 84.6792 25.5286 84.8146 25.8984C84.9552 26.2682 85.0255 26.6771 85.0255 27.125C85.0255 27.724 84.9135 28.2448 84.6896 28.6875C84.4656 29.1302 84.1557 29.4974 83.7599 29.7891C83.3693 30.0807 82.9135 30.2995 82.3927 30.4453C81.8771 30.5859 81.325 30.6562 80.7365 30.6562ZM88.1974 30.5L90.1818 21.0938H87.4318L87.8615 19.0781H95.7521L95.3224 21.0938H92.5646L90.5802 30.5H88.1974ZM93.6583 30.5L99.6427 19.0781H102.557L103.705 30.5H101.385L101.197 27.7812H97.5021L96.1583 30.5H93.6583ZM98.4786 25.75H101.08L100.877 22.8047C100.856 22.4922 100.835 22.1771 100.815 21.8594C100.794 21.5417 100.789 21.2161 100.799 20.8828H100.76C100.661 21.1693 100.546 21.4557 100.416 21.7422C100.286 22.0286 100.14 22.3333 99.9786 22.6562L98.4786 25.75ZM105.065 30.5L107.494 19.0781H109.885L107.447 30.5H105.065ZM110.205 30.5L112.619 19.0781H115.408L118.065 27.4922H118.127C118.164 27.2682 118.21 26.9792 118.268 26.625C118.325 26.2656 118.387 25.8958 118.455 25.5156C118.528 25.1302 118.596 24.7865 118.658 24.4844L119.807 19.0781H121.947L119.533 30.5H116.861L114.08 21.8594H114.002C113.997 21.9219 113.976 22.0729 113.94 22.3125C113.908 22.5521 113.867 22.8411 113.815 23.1797C113.768 23.513 113.716 23.8542 113.658 24.2031C113.601 24.5469 113.544 24.8542 113.486 25.125L112.354 30.5H110.205ZM120.908 30.5L126.893 19.0781H129.807L130.955 30.5H128.635L128.447 27.7812H124.752L123.408 30.5H120.908ZM125.729 25.75H128.33L128.127 22.8047C128.106 22.4922 128.085 22.1771 128.065 21.8594C128.044 21.5417 128.039 21.2161 128.049 20.8828H128.01C127.911 21.1693 127.796 21.4557 127.666 21.7422C127.536 22.0286 127.39 22.3333 127.229 22.6562L125.729 25.75ZM132.33 30.5L134.744 19.0781H138.072C138.802 19.0781 139.437 19.1641 139.979 19.3359C140.52 19.5026 140.94 19.7734 141.236 20.1484C141.539 20.5182 141.69 21.0078 141.69 21.6172C141.69 22.1328 141.591 22.5911 141.393 22.9922C141.2 23.388 140.919 23.7188 140.549 23.9844C140.179 24.2448 139.729 24.4323 139.197 24.5469V24.6094C139.718 24.7448 140.132 24.9974 140.44 25.3672C140.752 25.7318 140.908 26.2005 140.908 26.7734C140.908 27.638 140.71 28.3464 140.315 28.8984C139.919 29.4453 139.38 29.849 138.697 30.1094C138.02 30.3698 137.257 30.5 136.408 30.5H132.33ZM135.135 28.5H136.541C136.932 28.5 137.273 28.4349 137.565 28.3047C137.856 28.1745 138.083 27.9818 138.244 27.7266C138.411 27.4714 138.494 27.1589 138.494 26.7891C138.494 26.388 138.374 26.0781 138.135 25.8594C137.901 25.6354 137.544 25.5234 137.065 25.5234H135.776L135.135 28.5ZM136.174 23.6016H137.338C137.718 23.6016 138.049 23.5521 138.33 23.4531C138.617 23.349 138.838 23.1901 138.994 22.9766C139.151 22.7578 139.229 22.4766 139.229 22.1328C139.229 21.7786 139.119 21.513 138.901 21.3359C138.682 21.1536 138.348 21.0625 137.901 21.0625H136.713L136.174 23.6016ZM144.205 30.5L145.135 26.1328L143.291 19.0781H145.729L146.736 23.7031L149.658 19.0781H152.33L147.502 26.1328L146.572 30.5H144.205ZM152.947 30.5L154.932 21.0938H152.182L152.611 19.0781H160.502L160.072 21.0938H157.315L155.33 30.5H152.947ZM159.783 30.5L162.197 19.0781H168.588L168.166 21.0625H164.166L163.643 23.5703H167.369L166.94 25.5547H163.213L162.588 28.5H166.588L166.166 30.5H159.783ZM171.143 30.6562C170.57 30.6562 170.044 30.5938 169.565 30.4688C169.091 30.3438 168.69 30.1719 168.361 29.9531V27.8125C168.835 28.0781 169.299 28.2865 169.752 28.4375C170.21 28.5833 170.679 28.6562 171.158 28.6562C171.424 28.6562 171.669 28.6328 171.893 28.5859C172.122 28.5339 172.32 28.4557 172.486 28.3516C172.653 28.2474 172.783 28.1172 172.877 27.9609C172.971 27.8047 173.018 27.6224 173.018 27.4141C173.018 27.1172 172.958 26.8698 172.838 26.6719C172.723 26.4688 172.562 26.2812 172.354 26.1094C172.151 25.9375 171.914 25.7526 171.643 25.5547C171.325 25.3255 171.015 25.0651 170.713 24.7734C170.416 24.4818 170.171 24.1432 169.979 23.7578C169.786 23.3672 169.69 22.9115 169.69 22.3906C169.69 21.8802 169.781 21.4141 169.963 20.9922C170.151 20.5703 170.416 20.2031 170.76 19.8906C171.104 19.5781 171.515 19.3385 171.994 19.1719C172.479 19 173.018 18.9141 173.611 18.9141C174.2 18.9141 174.744 18.9792 175.244 19.1094C175.749 19.2344 176.239 19.4271 176.713 19.6875L175.861 21.5078C175.455 21.3151 175.067 21.1719 174.697 21.0781C174.333 20.9792 173.971 20.9297 173.611 20.9297C173.398 20.9297 173.2 20.9609 173.018 21.0234C172.841 21.0807 172.684 21.1667 172.549 21.2812C172.419 21.3906 172.317 21.5234 172.244 21.6797C172.171 21.8359 172.135 22.013 172.135 22.2109C172.135 22.4818 172.19 22.7135 172.299 22.9062C172.414 23.099 172.575 23.2786 172.783 23.4453C172.997 23.6068 173.252 23.7865 173.549 23.9844C173.971 24.2604 174.32 24.5573 174.596 24.875C174.877 25.1875 175.085 25.5286 175.221 25.8984C175.361 26.2682 175.432 26.6771 175.432 27.125C175.432 27.724 175.32 28.2448 175.096 28.6875C174.872 29.1302 174.562 29.4974 174.166 29.7891C173.776 30.0807 173.32 30.2995 172.799 30.4453C172.283 30.5859 171.731 30.6562 171.143 30.6562Z" fill="white"/>
</svg>
