<svg width="68" height="81" viewBox="0 0 68 81" fill="none" xmlns="http://www.w3.org/2000/svg">
<path d="M2.00024 16.2646C3.41802 14.2331 11.3664 7.64417 25.0532 4.04448C43.5143 -0.81088 48.2 4.13726 52.0002 6.98744C60.0002 12.9874 62.4208 17.5636 64.3887 22.6876C67.0002 29.4874 65.0002 37.4874 63.5002 40.4874C62.0002 43.4874 59.5002 47.9875 53.9732 54.1457C49.4775 59.1549 45.5893 63.3153 43.8432 64.6471C43.0181 65.2764 43.122 59.2645 43.122 54.1457C43.122 52.6314 39.5002 62.1471 38.5002 64.9874C37.5002 67.8278 35.8981 71.5025 34.0002 77.9874C33.8495 78.5025 34.8716 77.6639 36.0002 76.9874C45.5319 71.2752 49.5002 68.4875 53.7523 65.2731C54.5058 64.7035 55.3112 62.901 53.9732 63.3275C52.7601 63.7143 48.8391 65.2731 45.5002 65.2731" stroke="#568366" stroke-width="4" stroke-linecap="round"/>
</svg>
