<svg width="1275" height="465" viewBox="0 0 1275 465" fill="none" xmlns="http://www.w3.org/2000/svg">
<rect width="1275" height="465" fill="#F4F7EC"/>
<path d="M568.067 91.3501V69.4501H574.937C576.317 69.4501 577.517 69.7201 578.537 70.2601C579.557 70.7801 580.347 71.5201 580.907 72.4801C581.487 73.4401 581.777 74.5701 581.777 75.8701C581.777 77.3301 581.397 78.6001 580.637 79.6801C579.897 80.7401 578.887 81.4901 577.607 81.9301L582.077 91.3501H578.387L574.397 82.3501H571.307V91.3501H568.067ZM571.307 79.5001H574.937C576.017 79.5001 576.877 79.1801 577.517 78.5401C578.157 77.8801 578.477 77.0101 578.477 75.9301C578.477 74.8101 578.157 73.9301 577.517 73.2901C576.877 72.6501 576.017 72.3301 574.937 72.3301H571.307V79.5001ZM592.505 91.6501C590.525 91.6501 588.945 91.0801 587.765 89.9401C586.585 88.7801 585.995 87.2101 585.995 85.2301V74.8501H589.235V85.2301C589.235 86.3701 589.525 87.2601 590.105 87.9001C590.685 88.5201 591.485 88.8301 592.505 88.8301C593.545 88.8301 594.355 88.5201 594.935 87.9001C595.535 87.2601 595.835 86.3701 595.835 85.2301V74.8501H599.075V85.2301C599.075 87.2101 598.475 88.7801 597.275 89.9401C596.095 91.0801 594.505 91.6501 592.505 91.6501ZM611.693 91.6501C610.333 91.6501 609.253 91.2801 608.453 90.5401C607.653 89.7801 607.253 88.7501 607.253 87.4501L607.943 88.2001H607.253V91.3501H604.043V69.4501H607.283V74.1601L607.193 78.0001H607.943L607.253 78.7501C607.253 77.4501 607.653 76.4301 608.453 75.6901C609.273 74.9301 610.353 74.5501 611.693 74.5501C613.353 74.5501 614.683 75.1101 615.683 76.2301C616.683 77.3501 617.183 78.8701 617.183 80.7901V85.4401C617.183 87.3401 616.683 88.8501 615.683 89.9701C614.683 91.0901 613.353 91.6501 611.693 91.6501ZM610.583 88.8301C611.643 88.8301 612.473 88.5301 613.073 87.9301C613.673 87.3101 613.973 86.4201 613.973 85.2601V80.9401C613.973 79.7801 613.673 78.9001 613.073 78.3001C612.473 77.6801 611.643 77.3701 610.583 77.3701C609.563 77.3701 608.753 77.6901 608.153 78.3301C607.573 78.9501 607.283 79.8201 607.283 80.9401V85.2601C607.283 86.3801 607.573 87.2601 608.153 87.9001C608.753 88.5201 609.563 88.8301 610.583 88.8301ZM621.942 91.3501V88.4101H627.732V77.7901H622.692V74.8501H630.882V88.4101H636.192V91.3501H621.942ZM628.992 72.0001C628.292 72.0001 627.732 71.8201 627.312 71.4601C626.892 71.0801 626.682 70.5801 626.682 69.9601C626.682 69.3201 626.892 68.8201 627.312 68.4601C627.732 68.0801 628.292 67.8901 628.992 67.8901C629.692 67.8901 630.252 68.0801 630.672 68.4601C631.092 68.8201 631.302 69.3201 631.302 69.9601C631.302 70.5801 631.092 71.0801 630.672 71.4601C630.252 71.8201 629.692 72.0001 628.992 72.0001ZM646.59 91.6501C645.11 91.6501 643.84 91.4101 642.78 90.9301C641.72 90.4301 640.9 89.7301 640.32 88.8301C639.74 87.9101 639.45 86.8201 639.45 85.5601H642.66C642.66 86.5601 643.01 87.3501 643.71 87.9301C644.41 88.4901 645.38 88.7701 646.62 88.7701C647.78 88.7701 648.69 88.4901 649.35 87.9301C650.01 87.3701 650.34 86.6001 650.34 85.6201C650.34 84.8001 650.11 84.0901 649.65 83.4901C649.21 82.8901 648.57 82.4801 647.73 82.2601L644.97 81.4501C643.37 80.9901 642.13 80.2101 641.25 79.1101C640.39 77.9901 639.96 76.6601 639.96 75.1201C639.96 73.9201 640.23 72.8701 640.77 71.9701C641.31 71.0701 642.08 70.3701 643.08 69.8701C644.08 69.3701 645.26 69.1201 646.62 69.1201C648.62 69.1201 650.22 69.6601 651.42 70.7401C652.64 71.8201 653.26 73.2701 653.28 75.0901H650.04C650.04 74.1301 649.73 73.3801 649.11 72.8401C648.51 72.2801 647.66 72.0001 646.56 72.0001C645.5 72.0001 644.67 72.2601 644.07 72.7801C643.47 73.2801 643.17 73.9901 643.17 74.9101C643.17 75.7301 643.39 76.4401 643.83 77.0401C644.29 77.6401 644.94 78.0601 645.78 78.3001L648.57 79.1401C650.17 79.5801 651.4 80.3601 652.26 81.4801C653.12 82.6001 653.55 83.9401 653.55 85.5001C653.55 86.7201 653.26 87.8001 652.68 88.7401C652.1 89.6601 651.29 90.3801 650.25 90.9001C649.21 91.4001 647.99 91.6501 646.59 91.6501ZM664.608 91.6501C663.248 91.6501 662.048 91.4001 661.008 90.9001C659.988 90.3801 659.198 89.6401 658.638 88.6801C658.098 87.7001 657.828 86.5601 657.828 85.2601V80.9401C657.828 79.6201 658.098 78.4801 658.638 77.5201C659.198 76.5601 659.988 75.8301 661.008 75.3301C662.048 74.8101 663.248 74.5501 664.608 74.5501C666.588 74.5501 668.178 75.0701 669.378 76.1101C670.578 77.1501 671.208 78.5701 671.268 80.3701H668.028C667.968 79.4301 667.638 78.7001 667.038 78.1801C666.438 77.6601 665.628 77.4001 664.608 77.4001C663.508 77.4001 662.638 77.7101 661.998 78.3301C661.358 78.9301 661.038 79.7901 661.038 80.9101V85.2601C661.038 86.3801 661.358 87.2501 661.998 87.8701C662.638 88.4901 663.508 88.8001 664.608 88.8001C665.628 88.8001 666.438 88.5401 667.038 88.0201C667.638 87.5001 667.968 86.7701 668.028 85.8301H671.268C671.208 87.6301 670.578 89.0501 669.378 90.0901C668.178 91.1301 666.588 91.6501 664.608 91.6501ZM680.827 91.6501C679.107 91.6501 677.747 91.2101 676.747 90.3301C675.767 89.4301 675.277 88.2101 675.277 86.6701C675.277 85.1101 675.797 83.8901 676.837 83.0101C677.897 82.1101 679.347 81.6601 681.187 81.6601H685.777V80.1301C685.777 79.2301 685.497 78.5301 684.937 78.0301C684.377 77.5301 683.587 77.2801 682.567 77.2801C681.667 77.2801 680.917 77.4801 680.317 77.8801C679.717 78.2601 679.367 78.7701 679.267 79.4101H676.087C676.267 77.9301 676.947 76.7501 678.127 75.8701C679.327 74.9901 680.837 74.5501 682.657 74.5501C684.617 74.5501 686.167 75.0501 687.307 76.0501C688.447 77.0301 689.017 78.3701 689.017 80.0701V91.3501H685.867V88.3201H685.327L685.867 87.7201C685.867 88.9201 685.407 89.8801 684.487 90.6001C683.567 91.3001 682.347 91.6501 680.827 91.6501ZM681.787 89.1601C682.947 89.1601 683.897 88.8701 684.637 88.2901C685.397 87.6901 685.777 86.9301 685.777 86.0101V83.8501H681.247C680.407 83.8501 679.737 84.0801 679.237 84.5401C678.757 85.0001 678.517 85.6301 678.517 86.4301C678.517 87.2701 678.807 87.9401 679.387 88.4401C679.967 88.9201 680.767 89.1601 681.787 89.1601ZM693.985 91.3501V74.8501H697.195V78.0001H697.975L697.195 78.7501C697.195 77.4301 697.585 76.4001 698.365 75.6601C699.145 74.9201 700.225 74.5501 701.605 74.5501C703.245 74.5501 704.555 75.0801 705.535 76.1401C706.515 77.1801 707.005 78.5901 707.005 80.3701V91.3501H703.765V80.7301C703.765 79.6501 703.475 78.8201 702.895 78.2401C702.315 77.6601 701.525 77.3701 700.525 77.3701C699.505 77.3701 698.695 77.6801 698.095 78.3001C697.515 78.9001 697.225 79.7801 697.225 80.9401V91.3501H693.985Z" fill="#51B976"/>
<path d="M475.596 171.437C477.742 171.792 481.722 171.558 485.378 170.316C489.187 169.022 488.546 162.927 487.722 159.648C487.134 157.312 485.064 155.904 485.057 156.077C484.809 161.812 494.354 164.67 495.35 166.566C495.991 167.787 495.19 168.943 495.103 169.3C494.564 171.513 500.321 164.933 502.32 162.904C502.961 162.254 503.319 161.361 503.899 160.943C507.349 158.459 504.978 169.181 505.971 169.654C506.965 170.127 508.788 170.369 510.863 170.193C513.095 170.004 513.61 167.53 514.362 165.225C515.427 161.961 514.282 159.344 513.458 158.811C512.934 158.471 511.647 158.629 510.726 158.277C508.818 157.548 508.305 156.142 508.056 155.257C507.714 154.041 508.3 152.941 509.045 152.29C509.789 151.639 510.955 151.397 511.948 151.277C512.442 151.218 512.942 151.393 513.196 151.982C513.45 152.571 513.45 153.627 513.697 154.113C513.943 154.598 514.436 154.481 514.855 154.244C515.727 153.751 516.434 153.175 517.592 152.997C518.247 152.897 519.079 152.937 519.584 153.113C520.481 153.426 520.588 154.356 520.755 155.125C520.844 155.536 520.593 156.011 520.179 156.311C519.766 156.612 519.108 156.729 519.016 156.849C518.765 157.174 520.09 157.676 520.257 158.563C520.334 158.978 520.095 159.334 519.681 159.632C518.764 160.296 517.44 160.525 516.446 160.527C515.92 160.528 515.453 160.059 515.116 160.054C514.419 160.043 513.789 161.116 512.382 161.708C510.961 162.306 509.306 162.187 508.063 162.011C507.441 161.922 506.985 161.482 506.731 160.89C506.146 159.527 506.97 158.394 507.471 157.921C508.674 156.784 505.316 155.669 505.15 154.782C505.072 154.367 505.312 154.011 505.889 153.83C507.34 153.374 508.962 153.883 509.956 154.415C512.073 155.548 512.618 156.847 513.196 157.322C513.49 157.563 514.267 157.327 514.852 157.325C515.438 157.324 515.931 157.441 516.185 158.088C517.468 161.359 516.937 164.065 518.01 166.036C518.224 166.429 518.919 166.57 519.338 166.456C521.532 165.859 521.25 163.617 522.493 162.192C523.205 161.376 524.403 160.885 525.479 160.588C526.029 160.436 526.719 160.643 527.058 161.173C528.747 163.817 525.743 165.972 524.331 167.459C522.997 168.864 519.776 169.181 516.785 169.597C513.872 170.003 521.818 169.658 537.007 169.54C542.848 169.495 543.993 168.829 545.236 168.416C547.909 167.529 548.476 165.396 549.228 163.208C549.602 162.118 549.312 160.209 549.559 159.417C549.806 158.626 550.299 158.978 550.799 159.453C552.858 161.407 554.443 165.36 556.198 168.76C556.474 169.293 556.614 169.651 556.699 169.48C557.686 167.49 558.935 164.343 560.183 161.248C560.425 160.648 560.599 160.18 561.012 160.232C564.972 160.726 565.082 165.499 565.744 166.392C567.267 168.445 568.568 161.959 570.553 159.883C573.571 156.728 577.026 155.555 580.43 153.832C581.135 153.475 581.678 153.414 582.014 153.647C584.184 155.151 581.857 158.145 581.852 165.006C581.85 167.653 584.009 168.587 585.082 169.238C590.006 172.225 599.111 169.779 601.352 169.069C605.212 167.847 607.08 166.577 610.647 164.213C612.884 162.73 613.396 160.771 614.392 158.579C615.507 156.126 615.558 153.898 615.971 152.759C616.66 150.861 614.731 156.132 613.817 157.5C613.164 158.477 615.717 155.079 618.038 153.654C619.294 152.883 620.534 152.464 621.034 152.403C622.943 152.173 617.56 154.474 615.565 155.424C614.572 155.897 613.57 156.374 612.823 156.26C609.091 155.691 613.067 151.642 612.821 150.102C612.721 149.479 612.081 149.266 611.909 149.379C610.433 150.358 612.898 152.453 613.563 153.999C613.718 154.359 613.894 154.709 613.568 154.89C613.242 155.072 612.42 155.072 611.75 154.954C609.065 154.484 607.1 152.702 604.528 152.875C603.677 152.932 602.956 153.755 602.533 154.41C602.109 155.064 602.109 155.769 602.52 156.19C604.171 157.884 607.578 157.085 609.245 157.736C611.474 158.607 606.762 161.112 607.003 162.952C607.125 163.879 610.069 163.019 611.81 162.546C614.299 161.869 614.89 159.469 615.637 157.923C616.391 156.363 619.034 155.904 621.029 155.429C621.53 155.31 622.023 155.193 622.524 155.249C623.024 155.306 623.517 155.541 623.771 156.308C624.025 157.075 624.025 158.366 623.779 159.09C623.45 160.055 621.545 160.052 620.215 160.287C618.028 160.673 621.535 163.364 621.206 164.61C621.081 165.085 620.22 165.033 619.635 164.857C616.717 163.979 615.727 161.127 614.649 159.643C614.356 159.241 614.233 158.757 614.23 158.691C614.189 157.585 615.887 161.347 616.551 162.893C617.215 164.436 617.879 166.093 618.626 167.518C618.822 167.892 619.204 168.228 619.702 168.468C620.746 168.971 622.192 168.829 623.353 168.475C625.838 167.717 627.502 164.926 631.068 161.724C632.305 160.614 633.15 158.761 634.393 157.332C636.406 155.018 636.308 162.173 636.56 164.905C636.615 165.504 636.806 165.972 636.973 165.979C640.734 166.14 640.791 159.704 642.034 158.748C642.943 158.049 643.451 161.813 643.615 164.071C643.65 164.55 645.104 162.546 646.347 162.247C648.797 161.658 648.76 165.026 650.416 166.333C651.913 167.515 655.713 167.993 659.372 168.825C666.035 170.342 668.345 167.644 670.753 166.107C673.099 164.61 673.993 162.671 674.828 160.476C675.207 159.478 675.328 157.811 674.999 155.856C674.863 155.046 674.013 154.723 673.428 154.483C672.397 154.06 670.198 154.004 667.461 154.18C666.345 154.252 665.874 154.709 665.538 155.066C665.202 155.424 665.038 155.776 665.2 156.075C665.948 157.457 669.172 157.441 671.667 157.386C672.227 157.373 672.499 156.858 672.668 156.265C673.401 153.702 671.184 152.233 670.514 150.808C670.355 150.469 670.676 150.098 671.172 149.917C672.366 149.479 673.829 149.853 674.74 150.265C675.843 150.765 675.826 152.805 676.073 154.527C676.148 155.054 677.814 153.652 678.889 153.118C679.412 152.859 680.13 152.937 680.633 153.172C681.713 153.676 681.968 154.712 682.217 155.539C682.53 156.579 681.973 157.558 681.228 158.151C680.535 158.702 678.825 158.629 677.084 158.571C674.718 158.491 673.669 157.21 673.092 156.911C670.81 155.731 669.361 159.689 668.108 161.41C667.835 161.784 668.186 162.18 668.517 162.479C669.207 163.102 671.328 163.254 673.734 163.078C674.688 163.008 674.989 162.55 675.159 162.133C675.508 161.275 675.492 160.294 675.824 159.759C676.54 158.601 677.485 162.183 678.063 162.717C678.359 162.991 679.133 162.898 679.472 162.37C680.407 160.912 679.647 159.344 679.562 158.987C679.234 157.604 680.638 162.18 680.147 163.9C679.642 165.67 675.677 165.389 673.343 165.743C672.827 165.821 672.35 165.979 671.931 165.864C669.996 165.329 669.69 163.026 667.782 161.893C665.8 160.716 663.877 160.646 663.13 160.762C659.323 161.351 669.172 166.214 671.667 167.518C672.713 168.064 673.331 168.708 674.407 168.886C675.618 169.086 676.817 168.712 677.893 168.18C680.217 167.031 680.966 163.752 682.874 159.65C683.55 158.197 685.285 157.8 686.279 157.681C686.772 157.622 687.272 157.797 687.608 158.092C689.284 159.564 687.95 162.294 687.12 163.96C686.285 165.639 684.632 166.805 682.393 168.112C681.473 168.65 680.314 168.708 680.389 168.592C682.506 165.315 686.117 165.396 688.186 164.384C691.698 162.666 699.057 164.2 701.963 164.439C704.072 164.612 706.364 165.033 708.107 164.505C712.479 163.18 708.202 158.522 706.879 155.084C706.598 154.352 706.379 154.011 706.541 154.182C708.412 156.157 708.859 158.971 709.28 161.408C709.455 162.422 709.86 163.368 710.356 164.138C710.58 164.486 711.18 164.556 711.763 164.382C713.177 163.959 714.338 162.432 715.581 161.305C716.029 160.897 716.659 161.233 717.078 161.589C719.492 163.642 719.324 166.808 719.902 166.99C723.774 168.206 726.94 162.08 735.4 159.823C739.729 158.668 743.885 157.918 745.474 157.799C749.598 157.489 738.426 162.891 737.342 165.261C737.081 165.832 737.419 166.328 737.751 166.629C738.082 166.929 738.575 167.047 739.076 166.931C741.573 166.354 743.885 164.215 745.471 162.959C746.985 161.76 747.217 165.858 747.795 166.452C748.412 167.087 749.872 165.748 750.616 165.39C751.472 164.98 752.362 166.805 753.189 167.931C753.548 168.419 754.344 168.47 755.094 168.237C756.879 167.682 757.841 166.225 758.668 165.57C759.529 164.889 760.829 166.808 761.738 167.342C762.228 167.629 763.141 167.523 763.811 167.406C766.68 166.903 768.46 163.973 769.71 162.724C769.993 162.442 770.781 162.543 771.202 162.777C773.624 164.128 772.121 167.164 772.863 167.404C776.462 168.569 777.595 163.738 779.503 162.722C780.499 162.192 781.913 163.016 782.825 163.018C783.274 163.018 783.572 162.55 783.659 162.662C784.975 164.353 782.088 167.153 781.916 169.178C781.741 171.245 786.889 169.779 793.848 169.893C795.038 170.127 794.709 170.597 793.554 171.543C792.398 172.49 801.128 166.785 799.096 168.237" stroke="#51B976" stroke-width="2" stroke-linecap="round"/>
<rect x="404" y="186.65" width="467" height="218" rx="20" fill="white"/>
<path d="M483.318 287.65V268.67H486.776L488.674 274.754C488.864 275.326 489.029 275.881 489.168 276.418C489.306 276.938 489.402 277.328 489.454 277.588C489.523 277.328 489.618 276.938 489.74 276.418C489.878 275.881 490.034 275.326 490.208 274.754L492.028 268.67H495.486V287.65H492.834V281.254C492.834 280.439 492.851 279.538 492.886 278.55C492.938 277.545 493.007 276.539 493.094 275.534C493.18 274.511 493.267 273.541 493.354 272.622C493.44 271.686 493.518 270.871 493.588 270.178L490.78 279.408H488.076L485.216 270.178C485.302 270.854 485.389 271.643 485.476 272.544C485.562 273.428 485.64 274.373 485.71 275.378C485.779 276.383 485.84 277.397 485.892 278.42C485.944 279.425 485.97 280.37 485.97 281.254V287.65H483.318ZM503.561 287.91C502.071 287.91 500.892 287.529 500.025 286.766C499.176 285.986 498.751 284.929 498.751 283.594C498.751 282.242 499.202 281.185 500.103 280.422C501.022 279.642 502.279 279.252 503.873 279.252H507.851V277.926C507.851 277.146 507.609 276.539 507.123 276.106C506.638 275.673 505.953 275.456 505.069 275.456C504.289 275.456 503.639 275.629 503.119 275.976C502.599 276.305 502.296 276.747 502.209 277.302H499.453C499.609 276.019 500.199 274.997 501.221 274.234C502.261 273.471 503.57 273.09 505.147 273.09C506.846 273.09 508.189 273.523 509.177 274.39C510.165 275.239 510.659 276.401 510.659 277.874V287.65H507.929V285.024H507.461L507.929 284.504C507.929 285.544 507.531 286.376 506.733 287C505.936 287.607 504.879 287.91 503.561 287.91ZM504.393 285.752C505.399 285.752 506.222 285.501 506.863 284.998C507.522 284.478 507.851 283.819 507.851 283.022V281.15H503.925C503.197 281.15 502.617 281.349 502.183 281.748C501.767 282.147 501.559 282.693 501.559 283.386C501.559 284.114 501.811 284.695 502.313 285.128C502.816 285.544 503.509 285.752 504.393 285.752ZM515.043 287.65V268.67H517.851V279.096H520.373L524.169 273.35H527.341L522.791 280.214L527.419 287.65H524.195L520.373 281.514H517.851V287.65H515.043ZM530.477 287.65V285.102H535.495V275.898H531.127V273.35H538.225V285.102H542.827V287.65H530.477ZM536.587 270.88C535.98 270.88 535.495 270.724 535.131 270.412C534.767 270.083 534.585 269.649 534.585 269.112C534.585 268.557 534.767 268.124 535.131 267.812C535.495 267.483 535.98 267.318 536.587 267.318C537.194 267.318 537.679 267.483 538.043 267.812C538.407 268.124 538.589 268.557 538.589 269.112C538.589 269.649 538.407 270.083 538.043 270.412C537.679 270.724 537.194 270.88 536.587 270.88ZM546.145 287.65V273.35H548.927V276.08H549.603L548.927 276.73C548.927 275.586 549.265 274.693 549.941 274.052C550.617 273.411 551.553 273.09 552.749 273.09C554.17 273.09 555.306 273.549 556.155 274.468C557.004 275.369 557.429 276.591 557.429 278.134V287.65H554.621V278.446C554.621 277.51 554.37 276.791 553.867 276.288C553.364 275.785 552.68 275.534 551.813 275.534C550.929 275.534 550.227 275.803 549.707 276.34C549.204 276.86 548.953 277.623 548.953 278.628V287.65H546.145ZM563.607 292.33V289.912H568.001C568.729 289.912 569.266 289.739 569.613 289.392C569.977 289.045 570.159 288.534 570.159 287.858V286.428L570.211 283.776H569.613L570.185 283.256C570.185 284.348 569.838 285.206 569.145 285.83C568.469 286.454 567.55 286.766 566.389 286.766C564.915 286.766 563.754 286.281 562.905 285.31C562.055 284.339 561.631 283.031 561.631 281.384V278.472C561.631 276.825 562.055 275.517 562.905 274.546C563.754 273.575 564.915 273.09 566.389 273.09C567.55 273.09 568.469 273.411 569.145 274.052C569.838 274.676 570.185 275.534 570.185 276.626L569.613 276.08H570.185L570.159 273.35H572.941V287.91C572.941 289.279 572.507 290.354 571.641 291.134C570.774 291.931 569.569 292.33 568.027 292.33H563.607ZM567.299 284.348C568.183 284.348 568.876 284.079 569.379 283.542C569.899 282.987 570.159 282.225 570.159 281.254V278.628C570.159 277.657 569.899 276.903 569.379 276.366C568.876 275.811 568.183 275.534 567.299 275.534C566.38 275.534 565.669 275.803 565.167 276.34C564.681 276.86 564.439 277.623 564.439 278.628V281.254C564.439 282.242 564.681 283.005 565.167 283.542C565.669 284.079 566.38 284.348 567.299 284.348ZM592.914 292.33V273.35H595.696V276.08H596.294L595.696 276.73C595.696 275.603 596.043 274.719 596.736 274.078C597.447 273.419 598.392 273.09 599.57 273.09C601.009 273.09 602.153 273.575 603.002 274.546C603.869 275.499 604.302 276.808 604.302 278.472V282.502C604.302 283.611 604.103 284.573 603.704 285.388C603.323 286.185 602.777 286.809 602.066 287.26C601.373 287.693 600.541 287.91 599.57 287.91C598.409 287.91 597.473 287.589 596.762 286.948C596.052 286.289 595.696 285.397 595.696 284.27L596.294 284.92H595.644L595.722 288.248V292.33H592.914ZM598.608 285.466C599.527 285.466 600.238 285.206 600.74 284.686C601.26 284.149 601.52 283.377 601.52 282.372V278.628C601.52 277.623 601.26 276.86 600.74 276.34C600.238 275.803 599.527 275.534 598.608 275.534C597.724 275.534 597.022 275.811 596.502 276.366C595.982 276.903 595.722 277.657 595.722 278.628V282.372C595.722 283.343 595.982 284.105 596.502 284.66C597.022 285.197 597.724 285.466 598.608 285.466ZM616.174 287.65C615.29 287.65 614.519 287.477 613.86 287.13C613.202 286.766 612.682 286.255 612.3 285.596C611.936 284.937 611.754 284.175 611.754 283.308V271.218H607.074V268.67H614.562V283.308C614.562 283.863 614.718 284.305 615.03 284.634C615.342 284.946 615.767 285.102 616.304 285.102H620.724V287.65H616.174ZM628.28 287.91C626.789 287.91 625.611 287.529 624.744 286.766C623.895 285.986 623.47 284.929 623.47 283.594C623.47 282.242 623.921 281.185 624.822 280.422C625.741 279.642 626.997 279.252 628.592 279.252H632.57V277.926C632.57 277.146 632.327 276.539 631.842 276.106C631.357 275.673 630.672 275.456 629.788 275.456C629.008 275.456 628.358 275.629 627.838 275.976C627.318 276.305 627.015 276.747 626.928 277.302H624.172C624.328 276.019 624.917 274.997 625.94 274.234C626.98 273.471 628.289 273.09 629.866 273.09C631.565 273.09 632.908 273.523 633.896 274.39C634.884 275.239 635.378 276.401 635.378 277.874V287.65H632.648V285.024H632.18L632.648 284.504C632.648 285.544 632.249 286.376 631.452 287C630.655 287.607 629.597 287.91 628.28 287.91ZM629.112 285.752C630.117 285.752 630.941 285.501 631.582 284.998C632.241 284.478 632.57 283.819 632.57 283.022V281.15H628.644C627.916 281.15 627.335 281.349 626.902 281.748C626.486 282.147 626.278 282.693 626.278 283.386C626.278 284.114 626.529 284.695 627.032 285.128C627.535 285.544 628.228 285.752 629.112 285.752ZM639.684 287.65V273.35H642.466V276.08H643.142L642.466 276.73C642.466 275.586 642.804 274.693 643.48 274.052C644.156 273.411 645.092 273.09 646.288 273.09C647.709 273.09 648.845 273.549 649.694 274.468C650.543 275.369 650.968 276.591 650.968 278.134V287.65H648.16V278.446C648.16 277.51 647.909 276.791 647.406 276.288C646.903 275.785 646.219 275.534 645.352 275.534C644.468 275.534 643.766 275.803 643.246 276.34C642.743 276.86 642.492 277.623 642.492 278.628V287.65H639.684ZM662.45 287.65C661.15 287.65 660.136 287.295 659.408 286.584C658.68 285.873 658.316 284.885 658.316 283.62V275.898H654.364V273.35H658.316V269.32H661.124V273.35H666.714V275.898H661.124V283.62C661.124 284.608 661.601 285.102 662.554 285.102H666.454V287.65H662.45ZM686.454 292.33V273.35H689.236V276.08H689.834L689.236 276.73C689.236 275.603 689.582 274.719 690.276 274.078C690.986 273.419 691.931 273.09 693.11 273.09C694.548 273.09 695.692 273.575 696.542 274.546C697.408 275.499 697.842 276.808 697.842 278.472V282.502C697.842 283.611 697.642 284.573 697.244 285.388C696.862 286.185 696.316 286.809 695.606 287.26C694.912 287.693 694.08 287.91 693.11 287.91C691.948 287.91 691.012 287.589 690.302 286.948C689.591 286.289 689.236 285.397 689.236 284.27L689.834 284.92H689.184L689.262 288.248V292.33H686.454ZM692.148 285.466C693.066 285.466 693.777 285.206 694.28 284.686C694.8 284.149 695.06 283.377 695.06 282.372V278.628C695.06 277.623 694.8 276.86 694.28 276.34C693.777 275.803 693.066 275.534 692.148 275.534C691.264 275.534 690.562 275.811 690.042 276.366C689.522 276.903 689.262 277.657 689.262 278.628V282.372C689.262 283.343 689.522 284.105 690.042 284.66C690.562 285.197 691.264 285.466 692.148 285.466ZM702.511 287.65V273.35H705.215V276.08H705.891L705.033 277.77C705.033 276.227 705.371 275.066 706.047 274.286C706.723 273.489 707.729 273.09 709.063 273.09C710.589 273.09 711.793 273.567 712.677 274.52C713.579 275.456 714.029 276.747 714.029 278.394V279.356H711.143V278.628C711.143 277.605 710.883 276.825 710.363 276.288C709.861 275.733 709.15 275.456 708.231 275.456C707.313 275.456 706.593 275.733 706.073 276.288C705.571 276.843 705.319 277.623 705.319 278.628V287.65H702.511ZM723.249 287.884C722.071 287.884 721.048 287.659 720.181 287.208C719.315 286.757 718.647 286.116 718.179 285.284C717.711 284.452 717.477 283.473 717.477 282.346V278.654C717.477 277.51 717.711 276.531 718.179 275.716C718.647 274.884 719.315 274.243 720.181 273.792C721.048 273.341 722.071 273.116 723.249 273.116C724.428 273.116 725.451 273.341 726.317 273.792C727.184 274.243 727.851 274.884 728.319 275.716C728.787 276.531 729.021 277.51 729.021 278.654V282.346C729.021 283.473 728.787 284.452 728.319 285.284C727.851 286.116 727.184 286.757 726.317 287.208C725.451 287.659 724.428 287.884 723.249 287.884ZM723.249 285.414C724.203 285.414 724.939 285.154 725.459 284.634C725.979 284.097 726.239 283.334 726.239 282.346V278.654C726.239 277.649 725.979 276.886 725.459 276.366C724.939 275.846 724.203 275.586 723.249 275.586C722.313 275.586 721.577 275.846 721.039 276.366C720.519 276.886 720.259 277.649 720.259 278.654V282.346C720.259 283.334 720.519 284.097 721.039 284.634C721.577 285.154 722.313 285.414 723.249 285.414ZM740.399 287.65C739.099 287.65 738.085 287.295 737.357 286.584C736.629 285.873 736.265 284.885 736.265 283.62V275.898H732.313V273.35H736.265V269.32H739.073V273.35H744.663V275.898H739.073V283.62C739.073 284.608 739.55 285.102 740.503 285.102H744.403V287.65H740.399ZM754.429 287.91C753.268 287.91 752.245 287.685 751.361 287.234C750.494 286.766 749.827 286.116 749.359 285.284C748.891 284.452 748.657 283.481 748.657 282.372V278.628C748.657 277.501 748.891 276.531 749.359 275.716C749.827 274.884 750.494 274.243 751.361 273.792C752.245 273.324 753.268 273.09 754.429 273.09C755.608 273.09 756.63 273.324 757.497 273.792C758.364 274.243 759.031 274.884 759.499 275.716C759.967 276.531 760.201 277.501 760.201 278.628V281.176H751.361V282.372C751.361 283.429 751.621 284.235 752.141 284.79C752.678 285.345 753.45 285.622 754.455 285.622C755.27 285.622 755.928 285.483 756.431 285.206C756.934 284.911 757.246 284.487 757.367 283.932H760.149C759.941 285.145 759.317 286.116 758.277 286.844C757.237 287.555 755.954 287.91 754.429 287.91ZM757.497 279.486V278.602C757.497 277.562 757.237 276.756 756.717 276.184C756.197 275.612 755.434 275.326 754.429 275.326C753.441 275.326 752.678 275.612 752.141 276.184C751.621 276.756 751.361 277.571 751.361 278.628V279.278L757.705 279.252L757.497 279.486ZM764.325 287.65V285.102H769.343V275.898H764.975V273.35H772.073V285.102H776.675V287.65H764.325ZM770.435 270.88C769.828 270.88 769.343 270.724 768.979 270.412C768.615 270.083 768.433 269.649 768.433 269.112C768.433 268.557 768.615 268.124 768.979 267.812C769.343 267.483 769.828 267.318 770.435 267.318C771.041 267.318 771.527 267.483 771.891 267.812C772.255 268.124 772.437 268.557 772.437 269.112C772.437 269.649 772.255 270.083 771.891 270.412C771.527 270.724 771.041 270.88 770.435 270.88ZM779.993 287.65V273.35H782.775V276.08H783.451L782.775 276.73C782.775 275.586 783.113 274.693 783.789 274.052C784.465 273.411 785.401 273.09 786.597 273.09C788.018 273.09 789.153 273.549 790.003 274.468C790.852 275.369 791.277 276.591 791.277 278.134V287.65H788.469V278.446C788.469 277.51 788.217 276.791 787.715 276.288C787.212 275.785 786.527 275.534 785.661 275.534C784.777 275.534 784.075 275.803 783.555 276.34C783.052 276.86 782.801 277.623 782.801 278.628V287.65H779.993ZM437.484 321.65V307.35H440.188V310.08H440.864L440.006 311.77C440.006 310.227 440.344 309.066 441.02 308.286C441.696 307.489 442.701 307.09 444.036 307.09C445.561 307.09 446.766 307.567 447.65 308.52C448.551 309.456 449.002 310.747 449.002 312.394V313.356H446.116V312.628C446.116 311.605 445.856 310.825 445.336 310.288C444.833 309.733 444.123 309.456 443.204 309.456C442.285 309.456 441.566 309.733 441.046 310.288C440.543 310.843 440.292 311.623 440.292 312.628V321.65H437.484ZM458.222 321.91C457.061 321.91 456.038 321.685 455.154 321.234C454.287 320.766 453.62 320.116 453.152 319.284C452.684 318.452 452.45 317.481 452.45 316.372V312.628C452.45 311.501 452.684 310.531 453.152 309.716C453.62 308.884 454.287 308.243 455.154 307.792C456.038 307.324 457.061 307.09 458.222 307.09C459.401 307.09 460.423 307.324 461.29 307.792C462.157 308.243 462.824 308.884 463.292 309.716C463.76 310.531 463.994 311.501 463.994 312.628V315.176H455.154V316.372C455.154 317.429 455.414 318.235 455.934 318.79C456.471 319.345 457.243 319.622 458.248 319.622C459.063 319.622 459.721 319.483 460.224 319.206C460.727 318.911 461.039 318.487 461.16 317.932H463.942C463.734 319.145 463.11 320.116 462.07 320.844C461.03 321.555 459.747 321.91 458.222 321.91ZM461.29 313.486V312.602C461.29 311.562 461.03 310.756 460.51 310.184C459.99 309.612 459.227 309.326 458.222 309.326C457.234 309.326 456.471 309.612 455.934 310.184C455.414 310.756 455.154 311.571 455.154 312.628V313.278L461.498 313.252L461.29 313.486ZM473.318 321.884C472.295 321.884 471.394 321.719 470.614 321.39C469.851 321.061 469.244 320.61 468.794 320.038C468.36 319.449 468.109 318.755 468.04 317.958H470.848C470.917 318.426 471.168 318.807 471.602 319.102C472.035 319.379 472.607 319.518 473.318 319.518H474.436C475.285 319.518 475.926 319.345 476.36 318.998C476.793 318.651 477.01 318.192 477.01 317.62C477.01 317.065 476.81 316.632 476.412 316.32C476.03 315.991 475.458 315.774 474.696 315.67L472.85 315.384C471.324 315.141 470.198 314.708 469.47 314.084C468.759 313.443 468.404 312.498 468.404 311.25C468.404 309.933 468.828 308.919 469.678 308.208C470.544 307.48 471.818 307.116 473.5 307.116H474.488C475.978 307.116 477.166 307.463 478.05 308.156C478.951 308.832 479.462 309.742 479.584 310.886H476.776C476.706 310.47 476.472 310.132 476.074 309.872C475.692 309.612 475.164 309.482 474.488 309.482H473.5C472.685 309.482 472.087 309.638 471.706 309.95C471.342 310.245 471.16 310.687 471.16 311.276C471.16 311.796 471.324 312.186 471.654 312.446C471.983 312.706 472.494 312.888 473.188 312.992L475.086 313.304C476.698 313.529 477.876 313.98 478.622 314.656C479.384 315.315 479.766 316.277 479.766 317.542C479.766 318.911 479.315 319.977 478.414 320.74C477.53 321.503 476.204 321.884 474.436 321.884H473.318ZM489.402 321.91C488.24 321.91 487.218 321.685 486.334 321.234C485.467 320.766 484.8 320.116 484.332 319.284C483.864 318.452 483.63 317.481 483.63 316.372V312.628C483.63 311.501 483.864 310.531 484.332 309.716C484.8 308.884 485.467 308.243 486.334 307.792C487.218 307.324 488.24 307.09 489.402 307.09C490.58 307.09 491.603 307.324 492.47 307.792C493.336 308.243 494.004 308.884 494.472 309.716C494.94 310.531 495.174 311.501 495.174 312.628V315.176H486.334V316.372C486.334 317.429 486.594 318.235 487.114 318.79C487.651 319.345 488.422 319.622 489.428 319.622C490.242 319.622 490.901 319.483 491.404 319.206C491.906 318.911 492.218 318.487 492.34 317.932H495.122C494.914 319.145 494.29 320.116 493.25 320.844C492.21 321.555 490.927 321.91 489.402 321.91ZM492.47 313.486V312.602C492.47 311.562 492.21 310.756 491.69 310.184C491.17 309.612 490.407 309.326 489.402 309.326C488.414 309.326 487.651 309.612 487.114 310.184C486.594 310.756 486.334 311.571 486.334 312.628V313.278L492.678 313.252L492.47 313.486ZM503.561 321.91C502.071 321.91 500.892 321.529 500.025 320.766C499.176 319.986 498.751 318.929 498.751 317.594C498.751 316.242 499.202 315.185 500.103 314.422C501.022 313.642 502.279 313.252 503.873 313.252H507.851V311.926C507.851 311.146 507.609 310.539 507.123 310.106C506.638 309.673 505.953 309.456 505.069 309.456C504.289 309.456 503.639 309.629 503.119 309.976C502.599 310.305 502.296 310.747 502.209 311.302H499.453C499.609 310.019 500.199 308.997 501.221 308.234C502.261 307.471 503.57 307.09 505.147 307.09C506.846 307.09 508.189 307.523 509.177 308.39C510.165 309.239 510.659 310.401 510.659 311.874V321.65H507.929V319.024H507.461L507.929 318.504C507.929 319.544 507.531 320.376 506.733 321C505.936 321.607 504.879 321.91 503.561 321.91ZM504.393 319.752C505.399 319.752 506.222 319.501 506.863 318.998C507.522 318.478 507.851 317.819 507.851 317.022V315.15H503.925C503.197 315.15 502.617 315.349 502.183 315.748C501.767 316.147 501.559 316.693 501.559 317.386C501.559 318.114 501.811 318.695 502.313 319.128C502.816 319.544 503.509 319.752 504.393 319.752ZM515.433 321.65V307.35H518.137V310.08H518.813L517.955 311.77C517.955 310.227 518.293 309.066 518.969 308.286C519.645 307.489 520.651 307.09 521.985 307.09C523.511 307.09 524.715 307.567 525.599 308.52C526.501 309.456 526.951 310.747 526.951 312.394V313.356H524.065V312.628C524.065 311.605 523.805 310.825 523.285 310.288C522.783 309.733 522.072 309.456 521.153 309.456C520.235 309.456 519.515 309.733 518.995 310.288C518.493 310.843 518.241 311.623 518.241 312.628V321.65H515.433ZM536.275 321.91C535.096 321.91 534.056 321.693 533.155 321.26C532.271 320.809 531.586 320.168 531.101 319.336C530.633 318.487 530.399 317.499 530.399 316.372V312.628C530.399 311.484 530.633 310.496 531.101 309.664C531.586 308.832 532.271 308.199 533.155 307.766C534.056 307.315 535.096 307.09 536.275 307.09C537.991 307.09 539.369 307.541 540.409 308.442C541.449 309.343 541.995 310.574 542.047 312.134H539.239C539.187 311.319 538.901 310.687 538.381 310.236C537.861 309.785 537.159 309.56 536.275 309.56C535.322 309.56 534.568 309.829 534.013 310.366C533.458 310.886 533.181 311.631 533.181 312.602V316.372C533.181 317.343 533.458 318.097 534.013 318.634C534.568 319.171 535.322 319.44 536.275 319.44C537.159 319.44 537.861 319.215 538.381 318.764C538.901 318.313 539.187 317.681 539.239 316.866H542.047C541.995 318.426 541.449 319.657 540.409 320.558C539.369 321.459 537.991 321.91 536.275 321.91ZM546.145 321.65V302.67H548.953V307.35L548.927 310.08H549.603L548.927 310.73C548.927 309.586 549.265 308.693 549.941 308.052C550.617 307.411 551.553 307.09 552.749 307.09C554.17 307.09 555.306 307.549 556.155 308.468C557.004 309.369 557.429 310.591 557.429 312.134V321.65H554.621V312.446C554.621 311.51 554.37 310.782 553.867 310.262C553.364 309.742 552.68 309.482 551.813 309.482C550.929 309.482 550.227 309.759 549.707 310.314C549.204 310.851 548.953 311.623 548.953 312.628V321.65H546.145ZM581.511 321.91C580.02 321.91 578.841 321.529 577.975 320.766C577.125 319.986 576.701 318.929 576.701 317.594C576.701 316.242 577.151 315.185 578.053 314.422C578.971 313.642 580.228 313.252 581.823 313.252H585.801V311.926C585.801 311.146 585.558 310.539 585.073 310.106C584.587 309.673 583.903 309.456 583.019 309.456C582.239 309.456 581.589 309.629 581.069 309.976C580.549 310.305 580.245 310.747 580.159 311.302H577.403C577.559 310.019 578.148 308.997 579.171 308.234C580.211 307.471 581.519 307.09 583.097 307.09C584.795 307.09 586.139 307.523 587.127 308.39C588.115 309.239 588.609 310.401 588.609 311.874V321.65H585.879V319.024H585.411L585.879 318.504C585.879 319.544 585.48 320.376 584.683 321C583.885 321.607 582.828 321.91 581.511 321.91ZM582.343 319.752C583.348 319.752 584.171 319.501 584.813 318.998C585.471 318.478 585.801 317.819 585.801 317.022V315.15H581.875C581.147 315.15 580.566 315.349 580.133 315.748C579.717 316.147 579.509 316.693 579.509 317.386C579.509 318.114 579.76 318.695 580.263 319.128C580.765 319.544 581.459 319.752 582.343 319.752ZM598.634 321.91C597.456 321.91 596.416 321.693 595.514 321.26C594.63 320.809 593.946 320.168 593.46 319.336C592.992 318.487 592.758 317.499 592.758 316.372V312.628C592.758 311.484 592.992 310.496 593.46 309.664C593.946 308.832 594.63 308.199 595.514 307.766C596.416 307.315 597.456 307.09 598.634 307.09C600.35 307.09 601.728 307.541 602.768 308.442C603.808 309.343 604.354 310.574 604.406 312.134H601.598C601.546 311.319 601.26 310.687 600.74 310.236C600.22 309.785 599.518 309.56 598.634 309.56C597.681 309.56 596.927 309.829 596.372 310.366C595.818 310.886 595.54 311.631 595.54 312.602V316.372C595.54 317.343 595.818 318.097 596.372 318.634C596.927 319.171 597.681 319.44 598.634 319.44C599.518 319.44 600.22 319.215 600.74 318.764C601.26 318.313 601.546 317.681 601.598 316.866H604.406C604.354 318.426 603.808 319.657 602.768 320.558C601.728 321.459 600.35 321.91 598.634 321.91ZM614.224 321.91C613.046 321.91 612.006 321.693 611.104 321.26C610.22 320.809 609.536 320.168 609.05 319.336C608.582 318.487 608.348 317.499 608.348 316.372V312.628C608.348 311.484 608.582 310.496 609.05 309.664C609.536 308.832 610.22 308.199 611.104 307.766C612.006 307.315 613.046 307.09 614.224 307.09C615.94 307.09 617.318 307.541 618.358 308.442C619.398 309.343 619.944 310.574 619.996 312.134H617.188C617.136 311.319 616.85 310.687 616.33 310.236C615.81 309.785 615.108 309.56 614.224 309.56C613.271 309.56 612.517 309.829 611.962 310.366C611.408 310.886 611.13 311.631 611.13 312.602V316.372C611.13 317.343 611.408 318.097 611.962 318.634C612.517 319.171 613.271 319.44 614.224 319.44C615.108 319.44 615.81 319.215 616.33 318.764C616.85 318.313 617.136 317.681 617.188 316.866H619.996C619.944 318.426 619.398 319.657 618.358 320.558C617.318 321.459 615.94 321.91 614.224 321.91ZM629.71 321.91C628.549 321.91 627.526 321.685 626.642 321.234C625.775 320.766 625.108 320.116 624.64 319.284C624.172 318.452 623.938 317.481 623.938 316.372V312.628C623.938 311.501 624.172 310.531 624.64 309.716C625.108 308.884 625.775 308.243 626.642 307.792C627.526 307.324 628.549 307.09 629.71 307.09C630.889 307.09 631.911 307.324 632.778 307.792C633.645 308.243 634.312 308.884 634.78 309.716C635.248 310.531 635.482 311.501 635.482 312.628V315.176H626.642V316.372C626.642 317.429 626.902 318.235 627.422 318.79C627.959 319.345 628.731 319.622 629.736 319.622C630.551 319.622 631.209 319.483 631.712 319.206C632.215 318.911 632.527 318.487 632.648 317.932H635.43C635.222 319.145 634.598 320.116 633.558 320.844C632.518 321.555 631.235 321.91 629.71 321.91ZM632.778 313.486V312.602C632.778 311.562 632.518 310.756 631.998 310.184C631.478 309.612 630.715 309.326 629.71 309.326C628.722 309.326 627.959 309.612 627.422 310.184C626.902 310.756 626.642 311.571 626.642 312.628V313.278L632.986 313.252L632.778 313.486ZM644.806 321.884C643.783 321.884 642.882 321.719 642.102 321.39C641.339 321.061 640.733 320.61 640.282 320.038C639.849 319.449 639.597 318.755 639.528 317.958H642.336C642.405 318.426 642.657 318.807 643.09 319.102C643.523 319.379 644.095 319.518 644.806 319.518H645.924C646.773 319.518 647.415 319.345 647.848 318.998C648.281 318.651 648.498 318.192 648.498 317.62C648.498 317.065 648.299 316.632 647.9 316.32C647.519 315.991 646.947 315.774 646.184 315.67L644.338 315.384C642.813 315.141 641.686 314.708 640.958 314.084C640.247 313.443 639.892 312.498 639.892 311.25C639.892 309.933 640.317 308.919 641.166 308.208C642.033 307.48 643.307 307.116 644.988 307.116H645.976C647.467 307.116 648.654 307.463 649.538 308.156C650.439 308.832 650.951 309.742 651.072 310.886H648.264C648.195 310.47 647.961 310.132 647.562 309.872C647.181 309.612 646.652 309.482 645.976 309.482H644.988C644.173 309.482 643.575 309.638 643.194 309.95C642.83 310.245 642.648 310.687 642.648 311.276C642.648 311.796 642.813 312.186 643.142 312.446C643.471 312.706 643.983 312.888 644.676 312.992L646.574 313.304C648.186 313.529 649.365 313.98 650.11 314.656C650.873 315.315 651.254 316.277 651.254 317.542C651.254 318.911 650.803 319.977 649.902 320.74C649.018 321.503 647.692 321.884 645.924 321.884H644.806ZM660.396 321.884C659.373 321.884 658.472 321.719 657.692 321.39C656.929 321.061 656.323 320.61 655.872 320.038C655.439 319.449 655.187 318.755 655.118 317.958H657.926C657.995 318.426 658.247 318.807 658.68 319.102C659.113 319.379 659.685 319.518 660.396 319.518H661.514C662.363 319.518 663.005 319.345 663.438 318.998C663.871 318.651 664.088 318.192 664.088 317.62C664.088 317.065 663.889 316.632 663.49 316.32C663.109 315.991 662.537 315.774 661.774 315.67L659.928 315.384C658.403 315.141 657.276 314.708 656.548 314.084C655.837 313.443 655.482 312.498 655.482 311.25C655.482 309.933 655.907 308.919 656.756 308.208C657.623 307.48 658.897 307.116 660.578 307.116H661.566C663.057 307.116 664.244 307.463 665.128 308.156C666.029 308.832 666.541 309.742 666.662 310.886H663.854C663.785 310.47 663.551 310.132 663.152 309.872C662.771 309.612 662.242 309.482 661.566 309.482H660.578C659.763 309.482 659.165 309.638 658.784 309.95C658.42 310.245 658.238 310.687 658.238 311.276C658.238 311.796 658.403 312.186 658.732 312.446C659.061 312.706 659.573 312.888 660.266 312.992L662.164 313.304C663.776 313.529 664.955 313.98 665.7 314.656C666.463 315.315 666.844 316.277 666.844 317.542C666.844 318.911 666.393 319.977 665.492 320.74C664.608 321.503 663.282 321.884 661.514 321.884H660.396ZM670.786 321.65V319.102H675.804V309.898H671.436V307.35H678.534V319.102H683.136V321.65H670.786ZM676.896 304.88C676.289 304.88 675.804 304.724 675.44 304.412C675.076 304.083 674.894 303.649 674.894 303.112C674.894 302.557 675.076 302.124 675.44 301.812C675.804 301.483 676.289 301.318 676.896 301.318C677.502 301.318 677.988 301.483 678.352 301.812C678.716 302.124 678.898 302.557 678.898 303.112C678.898 303.649 678.716 304.083 678.352 304.412C677.988 304.724 677.502 304.88 676.896 304.88ZM693.084 321.91C691.905 321.91 690.969 321.589 690.276 320.948C689.582 320.289 689.236 319.397 689.236 318.27L689.834 318.92H689.236V321.65H686.454V302.67H689.262V306.752L689.184 310.08H689.834L689.236 310.73C689.236 309.603 689.582 308.719 690.276 308.078C690.986 307.419 691.922 307.09 693.084 307.09C694.522 307.09 695.675 307.575 696.542 308.546C697.408 309.517 697.842 310.834 697.842 312.498V316.528C697.842 318.175 697.408 319.483 696.542 320.454C695.675 321.425 694.522 321.91 693.084 321.91ZM692.122 319.466C693.04 319.466 693.76 319.206 694.28 318.686C694.8 318.149 695.06 317.377 695.06 316.372V312.628C695.06 311.623 694.8 310.86 694.28 310.34C693.76 309.803 693.04 309.534 692.122 309.534C691.238 309.534 690.536 309.811 690.016 310.366C689.513 310.903 689.262 311.657 689.262 312.628V316.372C689.262 317.343 689.513 318.105 690.016 318.66C690.536 319.197 691.238 319.466 692.122 319.466ZM709.713 321.65C708.829 321.65 708.058 321.477 707.399 321.13C706.741 320.766 706.221 320.255 705.839 319.596C705.475 318.937 705.293 318.175 705.293 317.308V305.218H700.613V302.67H708.101V317.308C708.101 317.863 708.257 318.305 708.569 318.634C708.881 318.946 709.306 319.102 709.843 319.102H714.263V321.65H709.713ZM723.249 321.91C722.088 321.91 721.065 321.685 720.181 321.234C719.315 320.766 718.647 320.116 718.179 319.284C717.711 318.452 717.477 317.481 717.477 316.372V312.628C717.477 311.501 717.711 310.531 718.179 309.716C718.647 308.884 719.315 308.243 720.181 307.792C721.065 307.324 722.088 307.09 723.249 307.09C724.428 307.09 725.451 307.324 726.317 307.792C727.184 308.243 727.851 308.884 728.319 309.716C728.787 310.531 729.021 311.501 729.021 312.628V315.176H720.181V316.372C720.181 317.429 720.441 318.235 720.961 318.79C721.499 319.345 722.27 319.622 723.275 319.622C724.09 319.622 724.749 319.483 725.251 319.206C725.754 318.911 726.066 318.487 726.187 317.932H728.969C728.761 319.145 728.137 320.116 727.097 320.844C726.057 321.555 724.775 321.91 723.249 321.91ZM726.317 313.486V312.602C726.317 311.562 726.057 310.756 725.537 310.184C725.017 309.612 724.255 309.326 723.249 309.326C722.261 309.326 721.499 309.612 720.961 310.184C720.441 310.756 720.181 311.571 720.181 312.628V313.278L726.525 313.252L726.317 313.486ZM755.989 321.65C754.689 321.65 753.675 321.295 752.947 320.584C752.219 319.873 751.855 318.885 751.855 317.62V309.898H747.903V307.35H751.855V303.32H754.663V307.35H760.253V309.898H754.663V317.62C754.663 318.608 755.14 319.102 756.093 319.102H759.993V321.65H755.989ZM770.019 321.884C768.84 321.884 767.817 321.659 766.951 321.208C766.084 320.757 765.417 320.116 764.949 319.284C764.481 318.452 764.247 317.473 764.247 316.346V312.654C764.247 311.51 764.481 310.531 764.949 309.716C765.417 308.884 766.084 308.243 766.951 307.792C767.817 307.341 768.84 307.116 770.019 307.116C771.197 307.116 772.22 307.341 773.087 307.792C773.953 308.243 774.621 308.884 775.089 309.716C775.557 310.531 775.791 311.51 775.791 312.654V316.346C775.791 317.473 775.557 318.452 775.089 319.284C774.621 320.116 773.953 320.757 773.087 321.208C772.22 321.659 771.197 321.884 770.019 321.884ZM770.019 319.414C770.972 319.414 771.709 319.154 772.229 318.634C772.749 318.097 773.009 317.334 773.009 316.346V312.654C773.009 311.649 772.749 310.886 772.229 310.366C771.709 309.846 770.972 309.586 770.019 309.586C769.083 309.586 768.346 309.846 767.809 310.366C767.289 310.886 767.029 311.649 767.029 312.654V316.346C767.029 317.334 767.289 318.097 767.809 318.634C768.346 319.154 769.083 319.414 770.019 319.414ZM799.768 321.91C798.278 321.91 797.099 321.529 796.232 320.766C795.383 319.986 794.958 318.929 794.958 317.594C794.958 316.242 795.409 315.185 796.31 314.422C797.229 313.642 798.486 313.252 800.08 313.252H804.058V311.926C804.058 311.146 803.816 310.539 803.33 310.106C802.845 309.673 802.16 309.456 801.276 309.456C800.496 309.456 799.846 309.629 799.326 309.976C798.806 310.305 798.503 310.747 798.416 311.302H795.66C795.816 310.019 796.406 308.997 797.428 308.234C798.468 307.471 799.777 307.09 801.354 307.09C803.053 307.09 804.396 307.523 805.384 308.39C806.372 309.239 806.866 310.401 806.866 311.874V321.65H804.136V319.024H803.668L804.136 318.504C804.136 319.544 803.738 320.376 802.94 321C802.143 321.607 801.086 321.91 799.768 321.91ZM800.6 319.752C801.606 319.752 802.429 319.501 803.07 318.998C803.729 318.478 804.058 317.819 804.058 317.022V315.15H800.132C799.404 315.15 798.824 315.349 798.39 315.748C797.974 316.147 797.766 316.693 797.766 317.386C797.766 318.114 798.018 318.695 798.52 319.128C799.023 319.544 799.716 319.752 800.6 319.752ZM818.842 321.65C817.958 321.65 817.187 321.477 816.528 321.13C815.87 320.766 815.35 320.255 814.968 319.596C814.604 318.937 814.422 318.175 814.422 317.308V305.218H809.742V302.67H817.23V317.308C817.23 317.863 817.386 318.305 817.698 318.634C818.01 318.946 818.435 319.102 818.972 319.102H823.392V321.65H818.842ZM834.432 321.65C833.548 321.65 832.777 321.477 832.118 321.13C831.459 320.766 830.939 320.255 830.558 319.596C830.194 318.937 830.012 318.175 830.012 317.308V305.218H825.332V302.67H832.82V317.308C832.82 317.863 832.976 318.305 833.288 318.634C833.6 318.946 834.025 319.102 834.562 319.102H838.982V321.65H834.432Z" fill="#568366"/>
</svg>
